%TF.GenerationSoftware,KiCad,Pcbnew,9.0.2*%
%TF.CreationDate,2025-06-19T19:47:11-10:00*%
%TF.ProjectId,Happy Birthday PCB,48617070-7920-4426-9972-746864617920,rev?*%
%TF.SameCoordinates,Original*%
%TF.FileFunction,Legend,Top*%
%TF.FilePolarity,Positive*%
%FSLAX46Y46*%
G04 Gerber Fmt 4.6, Leading zero omitted, Abs format (unit mm)*
G04 Created by KiCad (PCBNEW 9.0.2) date 2025-06-19 19:47:11*
%MOMM*%
%LPD*%
G01*
G04 APERTURE LIST*
%ADD10C,0.100000*%
%ADD11C,0.150000*%
%ADD12C,0.000000*%
%ADD13C,0.120000*%
G04 APERTURE END LIST*
D10*
G36*
X97362346Y-78014515D02*
G01*
X97308426Y-77501500D01*
X98379150Y-77388962D01*
X98666952Y-77335571D01*
X98860613Y-77255447D01*
X98985289Y-77155553D01*
X99073498Y-77022656D01*
X99119281Y-76871413D01*
X99122293Y-76694919D01*
X99121425Y-76686661D01*
X99082635Y-76499516D01*
X99013613Y-76351937D01*
X98915900Y-76235996D01*
X98789861Y-76156660D01*
X98617701Y-76113770D01*
X98382828Y-76115446D01*
X97176077Y-76242281D01*
X97123382Y-75740925D01*
X98330133Y-75614091D01*
X98527903Y-75574614D01*
X98673245Y-75508776D01*
X98778060Y-75419904D01*
X98850705Y-75304186D01*
X98889142Y-75159836D01*
X98889468Y-74977433D01*
X98848036Y-74789753D01*
X98773973Y-74651780D01*
X98668930Y-74552169D01*
X98536262Y-74488257D01*
X98361535Y-74455135D01*
X98131724Y-74460050D01*
X97001245Y-74578868D01*
X96947325Y-74065853D01*
X98178367Y-73936466D01*
X98474811Y-73926825D01*
X98717042Y-73960621D01*
X98915491Y-74031281D01*
X99078551Y-74136067D01*
X99216765Y-74276744D01*
X99324000Y-74445328D01*
X99401067Y-74646490D01*
X99446019Y-74886765D01*
X99446864Y-75080906D01*
X99408284Y-75266616D01*
X99329134Y-75447694D01*
X99211247Y-75601653D01*
X99043994Y-75725437D01*
X98815852Y-75819188D01*
X99053414Y-75856744D01*
X99251709Y-75944268D01*
X99419150Y-76082166D01*
X99551116Y-76257744D01*
X99639678Y-76454199D01*
X99686184Y-76676420D01*
X99687027Y-76684436D01*
X99691072Y-76923387D01*
X99652941Y-77134602D01*
X99575039Y-77323853D01*
X99456207Y-77495560D01*
X99305389Y-77638426D01*
X99122959Y-77750433D01*
X98903472Y-77831879D01*
X98639540Y-77880276D01*
X97362346Y-78014515D01*
G37*
G36*
X97036368Y-78048777D02*
G01*
X96621346Y-74100115D01*
X97172983Y-74042136D01*
X97588004Y-77990797D01*
X97036368Y-78048777D01*
G37*
G36*
X100220750Y-74287638D02*
G01*
X100161928Y-73727985D01*
X100716237Y-73669725D01*
X100775058Y-74229378D01*
X100220750Y-74287638D01*
G37*
G36*
X100576949Y-77676646D02*
G01*
X100281205Y-74862837D01*
X100835514Y-74804576D01*
X101131258Y-77618386D01*
X100576949Y-77676646D01*
G37*
G36*
X101972194Y-77530000D02*
G01*
X101676451Y-74716190D01*
X102230760Y-74657930D01*
X102526503Y-77471740D01*
X101972194Y-77530000D01*
G37*
G36*
X103298310Y-75220848D02*
G01*
X103207641Y-75151091D01*
X103099188Y-75104493D01*
X102978701Y-75082748D01*
X102836372Y-75085454D01*
X102668094Y-75121004D01*
X102539538Y-75183984D01*
X102442243Y-75272758D01*
X102374788Y-75385685D01*
X102339484Y-75522414D01*
X102339289Y-75690519D01*
X102225070Y-75152897D01*
X102304732Y-74985634D01*
X102402859Y-74844726D01*
X102519711Y-74727023D01*
X102655340Y-74633237D01*
X102802079Y-74570587D01*
X102962754Y-74537771D01*
X103151251Y-74532616D01*
X103317680Y-74556952D01*
X103472162Y-74611037D01*
X103608283Y-74693163D01*
X103298310Y-75220848D01*
G37*
G36*
X105080648Y-77203289D02*
G01*
X104854596Y-77202467D01*
X104684744Y-77154136D01*
X104556234Y-77064638D01*
X104459388Y-76936720D01*
X104386667Y-76762671D01*
X104342092Y-76529660D01*
X104038256Y-73638849D01*
X104592565Y-73580589D01*
X104896554Y-76472857D01*
X104917473Y-76564344D01*
X104953804Y-76624998D01*
X105007535Y-76661802D01*
X105079262Y-76669034D01*
X105345728Y-76641028D01*
X105401282Y-77169589D01*
X105080648Y-77203289D01*
G37*
G36*
X103886384Y-74990811D02*
G01*
X103833689Y-74489455D01*
X105105539Y-74355779D01*
X105158233Y-74857134D01*
X103886384Y-74990811D01*
G37*
G36*
X106161817Y-77089653D02*
G01*
X105746796Y-73140992D01*
X106301105Y-73082732D01*
X106716126Y-77031393D01*
X106161817Y-77089653D01*
G37*
G36*
X107873811Y-76909715D02*
G01*
X107694639Y-75205009D01*
X107655351Y-75014045D01*
X107587252Y-74869208D01*
X107492718Y-74760597D01*
X107371290Y-74684495D01*
X107223089Y-74644442D01*
X107039355Y-74643703D01*
X106865492Y-74679644D01*
X106733529Y-74742170D01*
X106634474Y-74829190D01*
X106565261Y-74940588D01*
X106528874Y-75076257D01*
X106528274Y-75244099D01*
X106413825Y-74704291D01*
X106495436Y-74537178D01*
X106595477Y-74397519D01*
X106714244Y-74281985D01*
X106851668Y-74190577D01*
X107001301Y-74128872D01*
X107165980Y-74095994D01*
X107393688Y-74092700D01*
X107589021Y-74130553D01*
X107758775Y-74206372D01*
X107907981Y-74321062D01*
X108028755Y-74465058D01*
X108126940Y-74645063D01*
X108201328Y-74867957D01*
X108248488Y-75142377D01*
X108428120Y-76851455D01*
X107873811Y-76909715D01*
G37*
G36*
X110874414Y-76594339D02*
G01*
X110459393Y-72645678D01*
X111013702Y-72587418D01*
X111428723Y-76536079D01*
X110874414Y-76594339D01*
G37*
G36*
X110169626Y-76711639D02*
G01*
X109937376Y-76715397D01*
X109738804Y-76677961D01*
X109566947Y-76602762D01*
X109416604Y-76489202D01*
X109294533Y-76345818D01*
X109195672Y-76167076D01*
X109121094Y-75946282D01*
X109074140Y-75674971D01*
X109009165Y-75056778D01*
X108998192Y-74779817D01*
X109024217Y-74547460D01*
X109082108Y-74352015D01*
X109169233Y-74187026D01*
X109290171Y-74044317D01*
X109438449Y-73935556D01*
X109618598Y-73858667D01*
X109837690Y-73815186D01*
X110002141Y-73812650D01*
X110158405Y-73839789D01*
X110309199Y-73896773D01*
X110447621Y-73980000D01*
X110571902Y-74088797D01*
X110683189Y-74225847D01*
X110686256Y-74804130D01*
X110651278Y-74637389D01*
X110589053Y-74507853D01*
X110497445Y-74404889D01*
X110380121Y-74335552D01*
X110242537Y-74301097D01*
X110072729Y-74301306D01*
X109899414Y-74340125D01*
X109766450Y-74411717D01*
X109665223Y-74515557D01*
X109597530Y-74645515D01*
X109562448Y-74806426D01*
X109564661Y-75007479D01*
X109628589Y-75615713D01*
X109668092Y-75811122D01*
X109735641Y-75958949D01*
X109828540Y-76069419D01*
X109948568Y-76147544D01*
X110093366Y-76188647D01*
X110271253Y-76190134D01*
X110437143Y-76154386D01*
X110564527Y-76090054D01*
X110664534Y-75995314D01*
X110732533Y-75872978D01*
X110766182Y-75730494D01*
X110765425Y-75557378D01*
X110865459Y-76144626D01*
X110782957Y-76331041D01*
X110638737Y-76511051D01*
X110515722Y-76605721D01*
X110361795Y-76673166D01*
X110169626Y-76711639D01*
G37*
G36*
X113863845Y-76280137D02*
G01*
X113676350Y-74496244D01*
X113639377Y-74319457D01*
X113574311Y-74184369D01*
X113483015Y-74082119D01*
X113366369Y-74010794D01*
X113223867Y-73973315D01*
X113047165Y-73972962D01*
X112884020Y-74002755D01*
X112724772Y-74057684D01*
X112577153Y-74135929D01*
X112450765Y-74233591D01*
X112016687Y-73998752D01*
X112120252Y-73869311D01*
X112249467Y-73754528D01*
X112407517Y-73653882D01*
X112671646Y-73545361D01*
X112979422Y-73484977D01*
X113246453Y-73476522D01*
X113472258Y-73507645D01*
X113664331Y-73573610D01*
X113828753Y-73672732D01*
X113967664Y-73805399D01*
X114076038Y-73969298D01*
X114154567Y-74169990D01*
X114200773Y-74415338D01*
X114390948Y-76224737D01*
X113863845Y-76280137D01*
G37*
G36*
X113178002Y-76395446D02*
G01*
X112911848Y-76407259D01*
X112695344Y-76385743D01*
X112519585Y-76336682D01*
X112377026Y-76263514D01*
X112255436Y-76159498D01*
X112160054Y-76024676D01*
X112090244Y-75853049D01*
X112048773Y-75635909D01*
X112043763Y-75425177D01*
X112073022Y-75250967D01*
X112132242Y-75105952D01*
X112220492Y-74984489D01*
X112379912Y-74857721D01*
X112603998Y-74761712D01*
X112912126Y-74702308D01*
X113713955Y-74618033D01*
X113798824Y-75060995D01*
X112961774Y-75148973D01*
X112823009Y-75175932D01*
X112721404Y-75219923D01*
X112648501Y-75278415D01*
X112597933Y-75355331D01*
X112570914Y-75453981D01*
X112570610Y-75581799D01*
X112602101Y-75714299D01*
X112661066Y-75811529D01*
X112747739Y-75881464D01*
X112854865Y-75923776D01*
X112998750Y-75944822D01*
X113190373Y-75938334D01*
X113482969Y-75887507D01*
X113656160Y-75820613D01*
X113741013Y-75754353D01*
X113783722Y-75679785D01*
X113791517Y-75591988D01*
X113890521Y-75984838D01*
X113818848Y-76097162D01*
X113727924Y-76190294D01*
X113619635Y-76265449D01*
X113490678Y-76325744D01*
X113348495Y-76367835D01*
X113178002Y-76395446D01*
G37*
G36*
X116488789Y-73159351D02*
G01*
X117054029Y-73099942D01*
X116215369Y-76675195D01*
X116152109Y-76865601D01*
X116068650Y-77005612D01*
X115966635Y-77105577D01*
X115841055Y-77178039D01*
X115674427Y-77234776D01*
X115456620Y-77272152D01*
X115345126Y-77283870D01*
X115289164Y-76751423D01*
X115400657Y-76739704D01*
X115543107Y-76707661D01*
X115639967Y-76651927D01*
X115712786Y-76565098D01*
X115776756Y-76422906D01*
X116488789Y-73159351D01*
G37*
G36*
X115999418Y-76267868D02*
G01*
X114556481Y-73362445D01*
X115121721Y-73303036D01*
X116243900Y-75640481D01*
X115999418Y-76267868D01*
G37*
G36*
X117774876Y-74843495D02*
G01*
X117466470Y-71909204D01*
X118020779Y-71850944D01*
X118329185Y-74785235D01*
X117774876Y-74843495D01*
G37*
G36*
X117867888Y-75859295D02*
G01*
X117806615Y-75276324D01*
X118388130Y-75215204D01*
X118449402Y-75798176D01*
X117867888Y-75859295D01*
G37*
G36*
X81087928Y-76449696D02*
G01*
X81364890Y-72488956D01*
X81920894Y-72527836D01*
X81643932Y-76488576D01*
X81087928Y-76449696D01*
G37*
G36*
X78836378Y-76292253D02*
G01*
X79113340Y-72331513D01*
X79669344Y-72370392D01*
X79392382Y-76331132D01*
X78836378Y-76292253D01*
G37*
G36*
X79300365Y-74632369D02*
G01*
X79337438Y-74102191D01*
X81537091Y-74256006D01*
X81500018Y-74786183D01*
X79300365Y-74632369D01*
G37*
G36*
X84168368Y-76665102D02*
G01*
X84293492Y-74875752D01*
X84287780Y-74695230D01*
X84247160Y-74550895D01*
X84175006Y-74434346D01*
X84072518Y-74343849D01*
X83938688Y-74282194D01*
X83764733Y-74251163D01*
X83598892Y-74252173D01*
X83432525Y-74278614D01*
X83273562Y-74330037D01*
X83132135Y-74404268D01*
X82745431Y-74097620D01*
X82869900Y-73988129D01*
X83017084Y-73897528D01*
X83190210Y-73825856D01*
X83469171Y-73764849D01*
X83782756Y-73758827D01*
X84047199Y-73796870D01*
X84264169Y-73866731D01*
X84441869Y-73965048D01*
X84586580Y-74091215D01*
X84700344Y-74245988D01*
X84778611Y-74426216D01*
X84821097Y-74637495D01*
X84823996Y-74887140D01*
X84697084Y-76702073D01*
X84168368Y-76665102D01*
G37*
G36*
X83472922Y-76659563D02*
G01*
X83208760Y-76624980D01*
X82999282Y-76566195D01*
X82834712Y-76487359D01*
X82707024Y-76390548D01*
X82605343Y-76266998D01*
X82534822Y-76117661D01*
X82495876Y-75936519D01*
X82492741Y-75715477D01*
X82524400Y-75507076D01*
X82583466Y-75340593D01*
X82666968Y-75208065D01*
X82774968Y-75103772D01*
X82953979Y-75006613D01*
X83191333Y-74950974D01*
X83505095Y-74945979D01*
X84309377Y-75002220D01*
X84316037Y-75453190D01*
X83476426Y-75394479D01*
X83335088Y-75396932D01*
X83227388Y-75422611D01*
X83145435Y-75467555D01*
X83082280Y-75534522D01*
X83038540Y-75626981D01*
X83016045Y-75752804D01*
X83024050Y-75888760D01*
X83065235Y-75994753D01*
X83138448Y-76078675D01*
X83236598Y-76138946D01*
X83374643Y-76184658D01*
X83564481Y-76211544D01*
X83861459Y-76212297D01*
X84043634Y-76176494D01*
X84138704Y-76125976D01*
X84193713Y-76059956D01*
X84216635Y-75974847D01*
X84245917Y-76378921D01*
X84155828Y-76477092D01*
X84050113Y-76553021D01*
X83930420Y-76608230D01*
X83792951Y-76645216D01*
X83645620Y-76661978D01*
X83472922Y-76659563D01*
G37*
G36*
X85461133Y-77911387D02*
G01*
X85738930Y-73938708D01*
X86294935Y-73977588D01*
X86017138Y-77950266D01*
X85461133Y-77911387D01*
G37*
G36*
X86806025Y-76892636D02*
G01*
X86634565Y-76865852D01*
X86485191Y-76812726D01*
X86354130Y-76733965D01*
X86242343Y-76630376D01*
X86154795Y-76505371D01*
X86090452Y-76355613D01*
X86169947Y-75764988D01*
X86175136Y-75939802D01*
X86213522Y-76080206D01*
X86285953Y-76199205D01*
X86389348Y-76289841D01*
X86518888Y-76349136D01*
X86685987Y-76378894D01*
X86863459Y-76371065D01*
X87006690Y-76324556D01*
X87124058Y-76241567D01*
X87213315Y-76127184D01*
X87275726Y-75976854D01*
X87308331Y-75780689D01*
X87351096Y-75169133D01*
X87346352Y-74966466D01*
X87305643Y-74805775D01*
X87233422Y-74677592D01*
X87128594Y-74576609D01*
X86993311Y-74509335D01*
X86819016Y-74476491D01*
X86649232Y-74481837D01*
X86513109Y-74519983D01*
X86398311Y-74591799D01*
X86310278Y-74696529D01*
X86252944Y-74827408D01*
X86223633Y-74997254D01*
X86204505Y-74447966D01*
X86311936Y-74298933D01*
X86432329Y-74180352D01*
X86566514Y-74088883D01*
X86714937Y-74024103D01*
X86870681Y-73990013D01*
X87036674Y-73986363D01*
X87258491Y-74022428D01*
X87441729Y-74093408D01*
X87593594Y-74197438D01*
X87718800Y-74336439D01*
X87810989Y-74498955D01*
X87875235Y-74693214D01*
X87909063Y-74925802D01*
X87907582Y-75204618D01*
X87864545Y-75820073D01*
X87827139Y-76091388D01*
X87760158Y-76313915D01*
X87667165Y-76495850D01*
X87549380Y-76643709D01*
X87402349Y-76762698D01*
X87233114Y-76843908D01*
X87036637Y-76888232D01*
X86806025Y-76892636D01*
G37*
G36*
X88497961Y-78123742D02*
G01*
X88775757Y-74151064D01*
X89331762Y-74189943D01*
X89053965Y-78162622D01*
X88497961Y-78123742D01*
G37*
G36*
X89842852Y-77104992D02*
G01*
X89671392Y-77078208D01*
X89522018Y-77025082D01*
X89390957Y-76946321D01*
X89279170Y-76842732D01*
X89191622Y-76717726D01*
X89127279Y-76567969D01*
X89206775Y-75977344D01*
X89211964Y-76152157D01*
X89250349Y-76292561D01*
X89322780Y-76411561D01*
X89426175Y-76502197D01*
X89555715Y-76561492D01*
X89722814Y-76591250D01*
X89900287Y-76583420D01*
X90043518Y-76536912D01*
X90160886Y-76453923D01*
X90250143Y-76339539D01*
X90312553Y-76189210D01*
X90345159Y-75993045D01*
X90387923Y-75381488D01*
X90383179Y-75178822D01*
X90342470Y-75018130D01*
X90270250Y-74889947D01*
X90165422Y-74788965D01*
X90030138Y-74721691D01*
X89855843Y-74688847D01*
X89686059Y-74694192D01*
X89549936Y-74732338D01*
X89435138Y-74804155D01*
X89347105Y-74908885D01*
X89289771Y-75039763D01*
X89260460Y-75209610D01*
X89241333Y-74660322D01*
X89348763Y-74511288D01*
X89469157Y-74392708D01*
X89603341Y-74301238D01*
X89751765Y-74236459D01*
X89907508Y-74202368D01*
X90073501Y-74198719D01*
X90295318Y-74234784D01*
X90478556Y-74305763D01*
X90630421Y-74409794D01*
X90755627Y-74548794D01*
X90847817Y-74711310D01*
X90912062Y-74905570D01*
X90945891Y-75138158D01*
X90944409Y-75416974D01*
X90901373Y-76032429D01*
X90863966Y-76303743D01*
X90796986Y-76526271D01*
X90703992Y-76708206D01*
X90586208Y-76856065D01*
X90439176Y-76975054D01*
X90269941Y-77056264D01*
X90073465Y-77100587D01*
X89842852Y-77104992D01*
G37*
G36*
X93341719Y-74470347D02*
G01*
X93908687Y-74509993D01*
X92461933Y-77885299D01*
X92366570Y-78061827D01*
X92260066Y-78185218D01*
X92142243Y-78265949D01*
X92005987Y-78315504D01*
X91832039Y-78342445D01*
X91611050Y-78341431D01*
X91499215Y-78333611D01*
X91536561Y-77799534D01*
X91648396Y-77807355D01*
X91794246Y-77800534D01*
X91899312Y-77762466D01*
X91986103Y-77689601D01*
X92073792Y-77560678D01*
X93341719Y-74470347D01*
G37*
G36*
X92319994Y-77446660D02*
G01*
X91403500Y-74334813D01*
X91970468Y-74374460D01*
X92669707Y-76871258D01*
X92319994Y-77446660D01*
G37*
D11*
X91584819Y-40166666D02*
X91108628Y-40499999D01*
X91584819Y-40738094D02*
X90584819Y-40738094D01*
X90584819Y-40738094D02*
X90584819Y-40357142D01*
X90584819Y-40357142D02*
X90632438Y-40261904D01*
X90632438Y-40261904D02*
X90680057Y-40214285D01*
X90680057Y-40214285D02*
X90775295Y-40166666D01*
X90775295Y-40166666D02*
X90918152Y-40166666D01*
X90918152Y-40166666D02*
X91013390Y-40214285D01*
X91013390Y-40214285D02*
X91061009Y-40261904D01*
X91061009Y-40261904D02*
X91108628Y-40357142D01*
X91108628Y-40357142D02*
X91108628Y-40738094D01*
X90584819Y-39261904D02*
X90584819Y-39738094D01*
X90584819Y-39738094D02*
X91061009Y-39785713D01*
X91061009Y-39785713D02*
X91013390Y-39738094D01*
X91013390Y-39738094D02*
X90965771Y-39642856D01*
X90965771Y-39642856D02*
X90965771Y-39404761D01*
X90965771Y-39404761D02*
X91013390Y-39309523D01*
X91013390Y-39309523D02*
X91061009Y-39261904D01*
X91061009Y-39261904D02*
X91156247Y-39214285D01*
X91156247Y-39214285D02*
X91394342Y-39214285D01*
X91394342Y-39214285D02*
X91489580Y-39261904D01*
X91489580Y-39261904D02*
X91537200Y-39309523D01*
X91537200Y-39309523D02*
X91584819Y-39404761D01*
X91584819Y-39404761D02*
X91584819Y-39642856D01*
X91584819Y-39642856D02*
X91537200Y-39738094D01*
X91537200Y-39738094D02*
X91489580Y-39785713D01*
X117324819Y-57476666D02*
X116848628Y-57809999D01*
X117324819Y-58048094D02*
X116324819Y-58048094D01*
X116324819Y-58048094D02*
X116324819Y-57667142D01*
X116324819Y-57667142D02*
X116372438Y-57571904D01*
X116372438Y-57571904D02*
X116420057Y-57524285D01*
X116420057Y-57524285D02*
X116515295Y-57476666D01*
X116515295Y-57476666D02*
X116658152Y-57476666D01*
X116658152Y-57476666D02*
X116753390Y-57524285D01*
X116753390Y-57524285D02*
X116801009Y-57571904D01*
X116801009Y-57571904D02*
X116848628Y-57667142D01*
X116848628Y-57667142D02*
X116848628Y-58048094D01*
X116658152Y-56619523D02*
X117324819Y-56619523D01*
X116277200Y-56857618D02*
X116991485Y-57095713D01*
X116991485Y-57095713D02*
X116991485Y-56476666D01*
X104333333Y-51584819D02*
X104000000Y-51108628D01*
X103761905Y-51584819D02*
X103761905Y-50584819D01*
X103761905Y-50584819D02*
X104142857Y-50584819D01*
X104142857Y-50584819D02*
X104238095Y-50632438D01*
X104238095Y-50632438D02*
X104285714Y-50680057D01*
X104285714Y-50680057D02*
X104333333Y-50775295D01*
X104333333Y-50775295D02*
X104333333Y-50918152D01*
X104333333Y-50918152D02*
X104285714Y-51013390D01*
X104285714Y-51013390D02*
X104238095Y-51061009D01*
X104238095Y-51061009D02*
X104142857Y-51108628D01*
X104142857Y-51108628D02*
X103761905Y-51108628D01*
X104666667Y-50584819D02*
X105285714Y-50584819D01*
X105285714Y-50584819D02*
X104952381Y-50965771D01*
X104952381Y-50965771D02*
X105095238Y-50965771D01*
X105095238Y-50965771D02*
X105190476Y-51013390D01*
X105190476Y-51013390D02*
X105238095Y-51061009D01*
X105238095Y-51061009D02*
X105285714Y-51156247D01*
X105285714Y-51156247D02*
X105285714Y-51394342D01*
X105285714Y-51394342D02*
X105238095Y-51489580D01*
X105238095Y-51489580D02*
X105190476Y-51537200D01*
X105190476Y-51537200D02*
X105095238Y-51584819D01*
X105095238Y-51584819D02*
X104809524Y-51584819D01*
X104809524Y-51584819D02*
X104714286Y-51537200D01*
X104714286Y-51537200D02*
X104666667Y-51489580D01*
X94333333Y-53084819D02*
X94000000Y-52608628D01*
X93761905Y-53084819D02*
X93761905Y-52084819D01*
X93761905Y-52084819D02*
X94142857Y-52084819D01*
X94142857Y-52084819D02*
X94238095Y-52132438D01*
X94238095Y-52132438D02*
X94285714Y-52180057D01*
X94285714Y-52180057D02*
X94333333Y-52275295D01*
X94333333Y-52275295D02*
X94333333Y-52418152D01*
X94333333Y-52418152D02*
X94285714Y-52513390D01*
X94285714Y-52513390D02*
X94238095Y-52561009D01*
X94238095Y-52561009D02*
X94142857Y-52608628D01*
X94142857Y-52608628D02*
X93761905Y-52608628D01*
X94714286Y-52180057D02*
X94761905Y-52132438D01*
X94761905Y-52132438D02*
X94857143Y-52084819D01*
X94857143Y-52084819D02*
X95095238Y-52084819D01*
X95095238Y-52084819D02*
X95190476Y-52132438D01*
X95190476Y-52132438D02*
X95238095Y-52180057D01*
X95238095Y-52180057D02*
X95285714Y-52275295D01*
X95285714Y-52275295D02*
X95285714Y-52370533D01*
X95285714Y-52370533D02*
X95238095Y-52513390D01*
X95238095Y-52513390D02*
X94666667Y-53084819D01*
X94666667Y-53084819D02*
X95285714Y-53084819D01*
X84333333Y-58324819D02*
X84000000Y-57848628D01*
X83761905Y-58324819D02*
X83761905Y-57324819D01*
X83761905Y-57324819D02*
X84142857Y-57324819D01*
X84142857Y-57324819D02*
X84238095Y-57372438D01*
X84238095Y-57372438D02*
X84285714Y-57420057D01*
X84285714Y-57420057D02*
X84333333Y-57515295D01*
X84333333Y-57515295D02*
X84333333Y-57658152D01*
X84333333Y-57658152D02*
X84285714Y-57753390D01*
X84285714Y-57753390D02*
X84238095Y-57801009D01*
X84238095Y-57801009D02*
X84142857Y-57848628D01*
X84142857Y-57848628D02*
X83761905Y-57848628D01*
X85285714Y-58324819D02*
X84714286Y-58324819D01*
X85000000Y-58324819D02*
X85000000Y-57324819D01*
X85000000Y-57324819D02*
X84904762Y-57467676D01*
X84904762Y-57467676D02*
X84809524Y-57562914D01*
X84809524Y-57562914D02*
X84714286Y-57610533D01*
X92994819Y-24743094D02*
X91994819Y-24743094D01*
X91994819Y-24743094D02*
X91994819Y-24504999D01*
X91994819Y-24504999D02*
X92042438Y-24362142D01*
X92042438Y-24362142D02*
X92137676Y-24266904D01*
X92137676Y-24266904D02*
X92232914Y-24219285D01*
X92232914Y-24219285D02*
X92423390Y-24171666D01*
X92423390Y-24171666D02*
X92566247Y-24171666D01*
X92566247Y-24171666D02*
X92756723Y-24219285D01*
X92756723Y-24219285D02*
X92851961Y-24266904D01*
X92851961Y-24266904D02*
X92947200Y-24362142D01*
X92947200Y-24362142D02*
X92994819Y-24504999D01*
X92994819Y-24504999D02*
X92994819Y-24743094D01*
X91994819Y-23838332D02*
X91994819Y-23219285D01*
X91994819Y-23219285D02*
X92375771Y-23552618D01*
X92375771Y-23552618D02*
X92375771Y-23409761D01*
X92375771Y-23409761D02*
X92423390Y-23314523D01*
X92423390Y-23314523D02*
X92471009Y-23266904D01*
X92471009Y-23266904D02*
X92566247Y-23219285D01*
X92566247Y-23219285D02*
X92804342Y-23219285D01*
X92804342Y-23219285D02*
X92899580Y-23266904D01*
X92899580Y-23266904D02*
X92947200Y-23314523D01*
X92947200Y-23314523D02*
X92994819Y-23409761D01*
X92994819Y-23409761D02*
X92994819Y-23695475D01*
X92994819Y-23695475D02*
X92947200Y-23790713D01*
X92947200Y-23790713D02*
X92899580Y-23838332D01*
X103414819Y-43008094D02*
X102414819Y-43008094D01*
X102414819Y-43008094D02*
X102414819Y-42769999D01*
X102414819Y-42769999D02*
X102462438Y-42627142D01*
X102462438Y-42627142D02*
X102557676Y-42531904D01*
X102557676Y-42531904D02*
X102652914Y-42484285D01*
X102652914Y-42484285D02*
X102843390Y-42436666D01*
X102843390Y-42436666D02*
X102986247Y-42436666D01*
X102986247Y-42436666D02*
X103176723Y-42484285D01*
X103176723Y-42484285D02*
X103271961Y-42531904D01*
X103271961Y-42531904D02*
X103367200Y-42627142D01*
X103367200Y-42627142D02*
X103414819Y-42769999D01*
X103414819Y-42769999D02*
X103414819Y-43008094D01*
X102510057Y-42055713D02*
X102462438Y-42008094D01*
X102462438Y-42008094D02*
X102414819Y-41912856D01*
X102414819Y-41912856D02*
X102414819Y-41674761D01*
X102414819Y-41674761D02*
X102462438Y-41579523D01*
X102462438Y-41579523D02*
X102510057Y-41531904D01*
X102510057Y-41531904D02*
X102605295Y-41484285D01*
X102605295Y-41484285D02*
X102700533Y-41484285D01*
X102700533Y-41484285D02*
X102843390Y-41531904D01*
X102843390Y-41531904D02*
X103414819Y-42103332D01*
X103414819Y-42103332D02*
X103414819Y-41484285D01*
X110991905Y-44994819D02*
X110991905Y-43994819D01*
X110991905Y-43994819D02*
X111230000Y-43994819D01*
X111230000Y-43994819D02*
X111372857Y-44042438D01*
X111372857Y-44042438D02*
X111468095Y-44137676D01*
X111468095Y-44137676D02*
X111515714Y-44232914D01*
X111515714Y-44232914D02*
X111563333Y-44423390D01*
X111563333Y-44423390D02*
X111563333Y-44566247D01*
X111563333Y-44566247D02*
X111515714Y-44756723D01*
X111515714Y-44756723D02*
X111468095Y-44851961D01*
X111468095Y-44851961D02*
X111372857Y-44947200D01*
X111372857Y-44947200D02*
X111230000Y-44994819D01*
X111230000Y-44994819D02*
X110991905Y-44994819D01*
X112515714Y-44994819D02*
X111944286Y-44994819D01*
X112230000Y-44994819D02*
X112230000Y-43994819D01*
X112230000Y-43994819D02*
X112134762Y-44137676D01*
X112134762Y-44137676D02*
X112039524Y-44232914D01*
X112039524Y-44232914D02*
X111944286Y-44280533D01*
D12*
%TO.C,G\u002A\u002A\u002A*%
G36*
X122481795Y-66257103D02*
G01*
X122537760Y-66280313D01*
X122599068Y-66336464D01*
X122659982Y-66433265D01*
X122715410Y-66559260D01*
X122760258Y-66702992D01*
X122788142Y-66843497D01*
X122802397Y-66971000D01*
X122803167Y-67076396D01*
X122789581Y-67187692D01*
X122775052Y-67264644D01*
X122745631Y-67426048D01*
X122732723Y-67546927D01*
X122737040Y-67636626D01*
X122759291Y-67704495D01*
X122800186Y-67759880D01*
X122813683Y-67773130D01*
X122869747Y-67820240D01*
X122912319Y-67846833D01*
X122920831Y-67849022D01*
X123014513Y-67864376D01*
X123128196Y-67904592D01*
X123241808Y-67960897D01*
X123335276Y-68024520D01*
X123348000Y-68035692D01*
X123454635Y-68157777D01*
X123528384Y-68301027D01*
X123572866Y-68474613D01*
X123590215Y-68649597D01*
X123601582Y-68887763D01*
X123704643Y-68837970D01*
X123787652Y-68802715D01*
X123893735Y-68763976D01*
X123969815Y-68739406D01*
X124126584Y-68693801D01*
X124245313Y-68667546D01*
X124336735Y-68664604D01*
X124411579Y-68688933D01*
X124480577Y-68744496D01*
X124554460Y-68835252D01*
X124643958Y-68965162D01*
X124664391Y-68995764D01*
X124872345Y-69316788D01*
X125067138Y-69637615D01*
X125252855Y-69966150D01*
X125433583Y-70310298D01*
X125613409Y-70677963D01*
X125796417Y-71077048D01*
X125986694Y-71515460D01*
X126072185Y-71719044D01*
X126140704Y-71884093D01*
X126205555Y-72041103D01*
X126262913Y-72180755D01*
X126308955Y-72293728D01*
X126339857Y-72370704D01*
X126345876Y-72386088D01*
X126379313Y-72465470D01*
X126429085Y-72574954D01*
X126487599Y-72698119D01*
X126530129Y-72784550D01*
X126584313Y-72899072D01*
X126624138Y-72995689D01*
X126645753Y-73064319D01*
X126647503Y-73091914D01*
X126619075Y-73121488D01*
X126561142Y-73129941D01*
X126468709Y-73116802D01*
X126336777Y-73081597D01*
X126250772Y-73054369D01*
X125846667Y-72921378D01*
X125811628Y-72909782D01*
X126182303Y-72909782D01*
X126200040Y-72928196D01*
X126252956Y-72954640D01*
X126325768Y-72983332D01*
X126403193Y-73008487D01*
X126469952Y-73024323D01*
X126491574Y-73026826D01*
X126499864Y-73005591D01*
X126483823Y-72942282D01*
X126449096Y-72851854D01*
X126411105Y-72759887D01*
X126380757Y-72683989D01*
X126364236Y-72639643D01*
X126363745Y-72638082D01*
X126347548Y-72642257D01*
X126314517Y-72680786D01*
X126272509Y-72741902D01*
X126229384Y-72813834D01*
X126193001Y-72884815D01*
X126182303Y-72909782D01*
X125811628Y-72909782D01*
X125486813Y-72802285D01*
X125421354Y-72780441D01*
X125738656Y-72780441D01*
X125744595Y-72805842D01*
X125746004Y-72806451D01*
X125811012Y-72828795D01*
X125892832Y-72854302D01*
X125972445Y-72877356D01*
X126030832Y-72892341D01*
X126046027Y-72895045D01*
X126074404Y-72875755D01*
X126119324Y-72822696D01*
X126171070Y-72747347D01*
X126171150Y-72747219D01*
X126222105Y-72661004D01*
X126261911Y-72584399D01*
X126280676Y-72537791D01*
X126278123Y-72495722D01*
X126261367Y-72424859D01*
X126234827Y-72337553D01*
X126202924Y-72246154D01*
X126170075Y-72163013D01*
X126140700Y-72100480D01*
X126119218Y-72070907D01*
X126113718Y-72071177D01*
X126098010Y-72099579D01*
X126067630Y-72163642D01*
X126028435Y-72250906D01*
X126017932Y-72274918D01*
X125959007Y-72397078D01*
X125887081Y-72527741D01*
X125823440Y-72629860D01*
X125764426Y-72722945D01*
X125738656Y-72780441D01*
X125421354Y-72780441D01*
X125165615Y-72695100D01*
X124959056Y-72625374D01*
X125224275Y-72625374D01*
X125252578Y-72638688D01*
X125315388Y-72663048D01*
X125397543Y-72693067D01*
X125483882Y-72723358D01*
X125559241Y-72748534D01*
X125608459Y-72763207D01*
X125616954Y-72764891D01*
X125639386Y-72745328D01*
X125681632Y-72691514D01*
X125735899Y-72613641D01*
X125756169Y-72582777D01*
X125896966Y-72341600D01*
X125993597Y-72122046D01*
X126028630Y-72006938D01*
X126043304Y-71931621D01*
X126040736Y-71869911D01*
X126018026Y-71798170D01*
X125996851Y-71748046D01*
X125935547Y-71608168D01*
X125836273Y-71809036D01*
X125752297Y-71960367D01*
X125646911Y-72122599D01*
X125531065Y-72280707D01*
X125415705Y-72419666D01*
X125320891Y-72516350D01*
X125263904Y-72571365D01*
X125229456Y-72611606D01*
X125224275Y-72625374D01*
X124959056Y-72625374D01*
X124877477Y-72597836D01*
X124616803Y-72508502D01*
X124594086Y-72500569D01*
X124824159Y-72500569D01*
X124935818Y-72540083D01*
X125012820Y-72564778D01*
X125073455Y-72579819D01*
X125087369Y-72581663D01*
X125121568Y-72564794D01*
X125181776Y-72517674D01*
X125258335Y-72448322D01*
X125313313Y-72394078D01*
X125529146Y-72147789D01*
X125699914Y-71892910D01*
X125795686Y-71705678D01*
X125835121Y-71613389D01*
X125856617Y-71539425D01*
X125859078Y-71470291D01*
X125841408Y-71392494D01*
X125802508Y-71292538D01*
X125753206Y-71182843D01*
X125657735Y-70974974D01*
X125593053Y-71196711D01*
X125483351Y-71505135D01*
X125338508Y-71807281D01*
X125166484Y-72088684D01*
X124975242Y-72334877D01*
X124953209Y-72359368D01*
X124824159Y-72500569D01*
X124594086Y-72500569D01*
X124377998Y-72425110D01*
X124190791Y-72358282D01*
X124461793Y-72358282D01*
X124462117Y-72360228D01*
X124490030Y-72374937D01*
X124551047Y-72402018D01*
X124602860Y-72423658D01*
X124733574Y-72477058D01*
X124871930Y-72327664D01*
X124959836Y-72225619D01*
X125053442Y-72105936D01*
X125126839Y-72002750D01*
X125283522Y-71743355D01*
X125406740Y-71483076D01*
X125479154Y-71288699D01*
X125530249Y-71130189D01*
X125561902Y-71007932D01*
X125574843Y-70909907D01*
X125569805Y-70824096D01*
X125547520Y-70738478D01*
X125517370Y-70661118D01*
X125479390Y-70577310D01*
X125447359Y-70516570D01*
X125427801Y-70491177D01*
X125427015Y-70491040D01*
X125412190Y-70514343D01*
X125392164Y-70574788D01*
X125375425Y-70641452D01*
X125289396Y-70942826D01*
X125165540Y-71256688D01*
X125011059Y-71568888D01*
X124833154Y-71865274D01*
X124639027Y-72131697D01*
X124582883Y-72198838D01*
X124522076Y-72271810D01*
X124479160Y-72328369D01*
X124461793Y-72358282D01*
X124190791Y-72358282D01*
X124155466Y-72345672D01*
X123943611Y-72268198D01*
X123736839Y-72190699D01*
X123655454Y-72159481D01*
X123881065Y-72159481D01*
X124098051Y-72239427D01*
X124198902Y-72275529D01*
X124282467Y-72303495D01*
X124335595Y-72319005D01*
X124345470Y-72320758D01*
X124375396Y-72302593D01*
X124428018Y-72253094D01*
X124493424Y-72181839D01*
X124513219Y-72158651D01*
X124659275Y-71970012D01*
X124806882Y-71753253D01*
X124941807Y-71530134D01*
X125020192Y-71383605D01*
X125081129Y-71250353D01*
X125144232Y-71092426D01*
X125205066Y-70923115D01*
X125259194Y-70755716D01*
X125302181Y-70603520D01*
X125329592Y-70479823D01*
X125335483Y-70438723D01*
X125341059Y-70364428D01*
X125336175Y-70304858D01*
X125316234Y-70243539D01*
X125276638Y-70163995D01*
X125240771Y-70099310D01*
X125130750Y-69903769D01*
X125071603Y-70125469D01*
X124924343Y-70585419D01*
X124736621Y-71013855D01*
X124509100Y-71409576D01*
X124242443Y-71771381D01*
X124037714Y-71998845D01*
X123881065Y-72159481D01*
X123655454Y-72159481D01*
X123529553Y-72111187D01*
X123316158Y-72027673D01*
X123091058Y-71938168D01*
X123047023Y-71920489D01*
X123255069Y-71920489D01*
X123497308Y-72014775D01*
X123605138Y-72055302D01*
X123697882Y-72087522D01*
X123762673Y-72107097D01*
X123782740Y-72110967D01*
X123817713Y-72093569D01*
X123877888Y-72045099D01*
X123953821Y-71973684D01*
X124011896Y-71913747D01*
X124290897Y-71578133D01*
X124535867Y-71207525D01*
X124742462Y-70810003D01*
X124906341Y-70393650D01*
X124997076Y-70080143D01*
X125069068Y-69786960D01*
X124942053Y-69576855D01*
X124815039Y-69366749D01*
X124705076Y-69695726D01*
X124518925Y-70175330D01*
X124290060Y-70626500D01*
X124016689Y-71052156D01*
X123697023Y-71455217D01*
X123486416Y-71683159D01*
X123255069Y-71920489D01*
X123047023Y-71920489D01*
X122941709Y-71878208D01*
X122682439Y-71773624D01*
X122552811Y-71720697D01*
X122785376Y-71720697D01*
X122807052Y-71734146D01*
X122862905Y-71760721D01*
X122938497Y-71794215D01*
X123019392Y-71828417D01*
X123091154Y-71857119D01*
X123139345Y-71874111D01*
X123145996Y-71875798D01*
X123168771Y-71861455D01*
X123219574Y-71822575D01*
X123273029Y-71779351D01*
X123362142Y-71697148D01*
X123472719Y-71581818D01*
X123596414Y-71443226D01*
X123724883Y-71291241D01*
X123849778Y-71135726D01*
X123962754Y-70986550D01*
X124053042Y-70857260D01*
X124221447Y-70580061D01*
X124378829Y-70279322D01*
X124518190Y-69970398D01*
X124632533Y-69668645D01*
X124706093Y-69424364D01*
X124748455Y-69260159D01*
X124623301Y-69077894D01*
X124551142Y-68976609D01*
X124502032Y-68917745D01*
X124472748Y-68898483D01*
X124460062Y-68916003D01*
X124458908Y-68934174D01*
X124449384Y-68977453D01*
X124422821Y-69061244D01*
X124382235Y-69177737D01*
X124330640Y-69319124D01*
X124271054Y-69477593D01*
X124206489Y-69645337D01*
X124139963Y-69814545D01*
X124074491Y-69977409D01*
X124013087Y-70126119D01*
X123958767Y-70252865D01*
X123914547Y-70349839D01*
X123903944Y-70371473D01*
X123833297Y-70505480D01*
X123752877Y-70647566D01*
X123675306Y-70775796D01*
X123639727Y-70830550D01*
X123561784Y-70935592D01*
X123457204Y-71061670D01*
X123335941Y-71198154D01*
X123207948Y-71334411D01*
X123083179Y-71459811D01*
X122971588Y-71563722D01*
X122892203Y-71628939D01*
X122831365Y-71676210D01*
X122792639Y-71710750D01*
X122785376Y-71720697D01*
X122552811Y-71720697D01*
X122467548Y-71685884D01*
X122292870Y-71612328D01*
X122154241Y-71550295D01*
X122047493Y-71497125D01*
X122022185Y-71482084D01*
X122237869Y-71482084D01*
X122250496Y-71510312D01*
X122309007Y-71547741D01*
X122366220Y-71577749D01*
X122472730Y-71624943D01*
X122577966Y-71659231D01*
X122665833Y-71676102D01*
X122711238Y-71674461D01*
X122744070Y-71652868D01*
X122806892Y-71600337D01*
X122892819Y-71523042D01*
X122994965Y-71427157D01*
X123093336Y-71331780D01*
X123274762Y-71146686D01*
X123421967Y-70980992D01*
X123543797Y-70824402D01*
X123603419Y-70738085D01*
X123691394Y-70597752D01*
X123778347Y-70446036D01*
X123858438Y-70294387D01*
X123925826Y-70154252D01*
X123974668Y-70037079D01*
X123996396Y-69967868D01*
X124011501Y-69902472D01*
X123959352Y-69967868D01*
X123769249Y-70196089D01*
X123572086Y-70410929D01*
X123353868Y-70627110D01*
X123177137Y-70790697D01*
X122985836Y-70961572D01*
X122825777Y-71099370D01*
X122691463Y-71208263D01*
X122577399Y-71292423D01*
X122478089Y-71356021D01*
X122388035Y-71403230D01*
X122346190Y-71421413D01*
X122270107Y-71455103D01*
X122237869Y-71482084D01*
X122022185Y-71482084D01*
X121968462Y-71450156D01*
X121912980Y-71406729D01*
X121876883Y-71364183D01*
X121856005Y-71319857D01*
X121846179Y-71271091D01*
X121843239Y-71215225D01*
X121843048Y-71176553D01*
X121845713Y-71134899D01*
X121913875Y-71134899D01*
X121914129Y-71237321D01*
X121922380Y-71266709D01*
X121976287Y-71355121D01*
X122056678Y-71399868D01*
X122164415Y-71401070D01*
X122300356Y-71358847D01*
X122366136Y-71328158D01*
X122451006Y-71277266D01*
X122566161Y-71196500D01*
X122703935Y-71091999D01*
X122856662Y-70969900D01*
X123016676Y-70836343D01*
X123176311Y-70697466D01*
X123327903Y-70559406D01*
X123338127Y-70549826D01*
X123504886Y-70382083D01*
X123674892Y-70191229D01*
X123835818Y-69992248D01*
X123975338Y-69800124D01*
X124048560Y-69686262D01*
X124113272Y-69565446D01*
X124184541Y-69410642D01*
X124255690Y-69238478D01*
X124320042Y-69065580D01*
X124370921Y-68908576D01*
X124391275Y-68832813D01*
X124409443Y-68757181D01*
X124238260Y-68770922D01*
X124102922Y-68795708D01*
X123948806Y-68845392D01*
X123796668Y-68911625D01*
X123667265Y-68986058D01*
X123624772Y-69017687D01*
X123590228Y-69051047D01*
X123574157Y-69088287D01*
X123573023Y-69146159D01*
X123581175Y-69224196D01*
X123594043Y-69307980D01*
X123614527Y-69368397D01*
X123652401Y-69422981D01*
X123717439Y-69489264D01*
X123741726Y-69512193D01*
X123810454Y-69580332D01*
X123860809Y-69637266D01*
X123883090Y-69671906D01*
X123883419Y-69674201D01*
X123860235Y-69716760D01*
X123802082Y-69755146D01*
X123726061Y-69780094D01*
X123679397Y-69784758D01*
X123579806Y-69760275D01*
X123498248Y-69689277D01*
X123437998Y-69575443D01*
X123412857Y-69485342D01*
X123397872Y-69388296D01*
X123396189Y-69358475D01*
X123476757Y-69358475D01*
X123491676Y-69483013D01*
X123530487Y-69592253D01*
X123589208Y-69669409D01*
X123593408Y-69672752D01*
X123639734Y-69694420D01*
X123695720Y-69705096D01*
X123739983Y-69702448D01*
X123752626Y-69690116D01*
X123736814Y-69662581D01*
X123696693Y-69611078D01*
X123670878Y-69580845D01*
X123572422Y-69438537D01*
X123521204Y-69292104D01*
X123514521Y-69229728D01*
X123511843Y-69143872D01*
X123489709Y-69235427D01*
X123476757Y-69358475D01*
X123396189Y-69358475D01*
X123392913Y-69300435D01*
X123396256Y-69258114D01*
X123400741Y-69205148D01*
X123390465Y-69183110D01*
X123390460Y-69183110D01*
X123354792Y-69200658D01*
X123291463Y-69248165D01*
X123208647Y-69317929D01*
X123114513Y-69402248D01*
X123017234Y-69493418D01*
X122924979Y-69583737D01*
X122845920Y-69665503D01*
X122788229Y-69731011D01*
X122760077Y-69772560D01*
X122758599Y-69778753D01*
X122783162Y-69836394D01*
X122851510Y-69895883D01*
X122955631Y-69951707D01*
X123070879Y-69993543D01*
X123170779Y-70027604D01*
X123232126Y-70057965D01*
X123248687Y-70080640D01*
X123211034Y-70125900D01*
X123137400Y-70169913D01*
X123043809Y-70205747D01*
X122946289Y-70226473D01*
X122905569Y-70229024D01*
X122829658Y-70225515D01*
X122773857Y-70208191D01*
X122718414Y-70167786D01*
X122664286Y-70115866D01*
X122550698Y-70002278D01*
X122497697Y-70058695D01*
X122455960Y-70117623D01*
X122451785Y-70174303D01*
X122487445Y-70239417D01*
X122551081Y-70309680D01*
X122610983Y-70374112D01*
X122635976Y-70416083D01*
X122631642Y-70446264D01*
X122626354Y-70453553D01*
X122570419Y-70484402D01*
X122490293Y-70487901D01*
X122405567Y-70465338D01*
X122355291Y-70435741D01*
X122306229Y-70401256D01*
X122278163Y-70389244D01*
X122276807Y-70389963D01*
X122259328Y-70415917D01*
X122224186Y-70471071D01*
X122202470Y-70505765D01*
X122161743Y-70585290D01*
X122158767Y-70645042D01*
X122197370Y-70697904D01*
X122276030Y-70753469D01*
X122344643Y-70789302D01*
X122404273Y-70797048D01*
X122476749Y-70783252D01*
X122564491Y-70771713D01*
X122635393Y-70781599D01*
X122675661Y-70809941D01*
X122680123Y-70827042D01*
X122656562Y-70841610D01*
X122595307Y-70859080D01*
X122524082Y-70873107D01*
X122400700Y-70884225D01*
X122303904Y-70866055D01*
X122213377Y-70812484D01*
X122154932Y-70762034D01*
X122087516Y-70699182D01*
X122020196Y-70837078D01*
X121948957Y-71002688D01*
X121913875Y-71134899D01*
X121845713Y-71134899D01*
X121849352Y-71078027D01*
X121871974Y-70983894D01*
X121916487Y-70873466D01*
X121935662Y-70832562D01*
X121982433Y-70733845D01*
X122004057Y-70669682D01*
X121995799Y-70626458D01*
X121952920Y-70590555D01*
X121870685Y-70548355D01*
X121829969Y-70528727D01*
X121695915Y-70480642D01*
X121548479Y-70465175D01*
X121541031Y-70465137D01*
X121456983Y-70467989D01*
X121388235Y-70480739D01*
X121317238Y-70509203D01*
X121226439Y-70559195D01*
X121187890Y-70582159D01*
X121057072Y-70653782D01*
X120947729Y-70693153D01*
X120849888Y-70698436D01*
X120753579Y-70667796D01*
X120648828Y-70599396D01*
X120525664Y-70491399D01*
X120485503Y-70452825D01*
X120394930Y-70368849D01*
X120309749Y-70297178D01*
X120241600Y-70247242D01*
X120211220Y-70230623D01*
X120137242Y-70214224D01*
X120078317Y-70221215D01*
X120047894Y-70248040D01*
X120049377Y-70273416D01*
X120054935Y-70324287D01*
X120031915Y-70346354D01*
X119996538Y-70332156D01*
X119960414Y-70278270D01*
X119967039Y-70222621D01*
X120007926Y-70174019D01*
X120074587Y-70141273D01*
X120158533Y-70133193D01*
X120184856Y-70136713D01*
X120242294Y-70156886D01*
X120312249Y-70200859D01*
X120402111Y-70274006D01*
X120510822Y-70373676D01*
X120637456Y-70488395D01*
X120739100Y-70565671D01*
X120823945Y-70608508D01*
X120900184Y-70619910D01*
X120976010Y-70602881D01*
X121044463Y-70569328D01*
X121174912Y-70495603D01*
X121272487Y-70444804D01*
X121349038Y-70412709D01*
X121416413Y-70395096D01*
X121486461Y-70387743D01*
X121557836Y-70386406D01*
X121666216Y-70390747D01*
X121753379Y-70408107D01*
X121844913Y-70444986D01*
X121902769Y-70474055D01*
X122070925Y-70561704D01*
X122154898Y-70421310D01*
X122238871Y-70280917D01*
X122174215Y-70139688D01*
X122104012Y-70018336D01*
X122022522Y-69942820D01*
X121924723Y-69911939D01*
X121805594Y-69924492D01*
X121660115Y-69979278D01*
X121609147Y-70004512D01*
X121476062Y-70067038D01*
X121373161Y-70095459D01*
X121289314Y-70086843D01*
X121213390Y-70038258D01*
X121134259Y-69946773D01*
X121076744Y-69864281D01*
X120972741Y-69753597D01*
X120882872Y-69701204D01*
X120821853Y-69677077D01*
X120762872Y-69662917D01*
X120691766Y-69657461D01*
X120594370Y-69659448D01*
X120484988Y-69665742D01*
X120326903Y-69672518D01*
X120209107Y-69667795D01*
X120120404Y-69649381D01*
X120049602Y-69615082D01*
X119992327Y-69569187D01*
X119951429Y-69505652D01*
X119932466Y-69422881D01*
X120001189Y-69422881D01*
X120038646Y-69497724D01*
X120107313Y-69557395D01*
X120115569Y-69561887D01*
X120161041Y-69579973D01*
X120219132Y-69590394D01*
X120300914Y-69593870D01*
X120417460Y-69591124D01*
X120502532Y-69587111D01*
X120636161Y-69580910D01*
X120730135Y-69579608D01*
X120796995Y-69584537D01*
X120849282Y-69597030D01*
X120899535Y-69618421D01*
X120926464Y-69632159D01*
X121020629Y-69698386D01*
X121119942Y-69796833D01*
X121163866Y-69850154D01*
X121247625Y-69948504D01*
X121319745Y-70002543D01*
X121391604Y-70014944D01*
X121474585Y-69988377D01*
X121554953Y-69941935D01*
X121695937Y-69864147D01*
X121817537Y-69826796D01*
X121930045Y-69827232D01*
X121968142Y-69835540D01*
X122068127Y-69880095D01*
X122154993Y-69959674D01*
X122234729Y-70080833D01*
X122283845Y-70181123D01*
X122345172Y-70300642D01*
X122403415Y-70374352D01*
X122463837Y-70408094D01*
X122491805Y-70411769D01*
X122501827Y-70394951D01*
X122475521Y-70345771D01*
X122462439Y-70327549D01*
X122418085Y-70259156D01*
X122364783Y-70164413D01*
X122318310Y-70072502D01*
X122232997Y-69929774D01*
X122131624Y-69832992D01*
X122008918Y-69779877D01*
X121859606Y-69768150D01*
X121678415Y-69795531D01*
X121677934Y-69795643D01*
X121540606Y-69825162D01*
X121439357Y-69837054D01*
X121359948Y-69828007D01*
X121288137Y-69794709D01*
X121209683Y-69733849D01*
X121140657Y-69670699D01*
X121024812Y-69569039D01*
X120923818Y-69501800D01*
X120821786Y-69463341D01*
X120702828Y-69448022D01*
X120551053Y-69450202D01*
X120523787Y-69451731D01*
X120332925Y-69453190D01*
X120188507Y-69431887D01*
X120089792Y-69387666D01*
X120053519Y-69351910D01*
X120026281Y-69321237D01*
X120010306Y-69333955D01*
X120003808Y-69349698D01*
X120001189Y-69422881D01*
X119932466Y-69422881D01*
X119932432Y-69422734D01*
X119933722Y-69334748D01*
X119953685Y-69256006D01*
X119990708Y-69200821D01*
X120035852Y-69183110D01*
X120081834Y-69206651D01*
X120115877Y-69259888D01*
X120151949Y-69317231D01*
X120209259Y-69355283D01*
X120295522Y-69376055D01*
X120418459Y-69381561D01*
X120559548Y-69375612D01*
X120683772Y-69369029D01*
X120771676Y-69369697D01*
X120838952Y-69379217D01*
X120901291Y-69399193D01*
X120936716Y-69414135D01*
X121019822Y-69462533D01*
X121115626Y-69535456D01*
X121200260Y-69613907D01*
X121279755Y-69691973D01*
X121345312Y-69737937D01*
X121412559Y-69755681D01*
X121497123Y-69749085D01*
X121614635Y-69722031D01*
X121624920Y-69719361D01*
X121826051Y-69683980D01*
X121997462Y-69690944D01*
X122140784Y-69740713D01*
X122257646Y-69833749D01*
X122318930Y-69915610D01*
X122401642Y-70048665D01*
X122461466Y-69975568D01*
X122501734Y-69918500D01*
X122521775Y-69874742D01*
X122522231Y-69870875D01*
X122503849Y-69831007D01*
X122455114Y-69772131D01*
X122388003Y-69705980D01*
X122314495Y-69644289D01*
X122246569Y-69598792D01*
X122241967Y-69596325D01*
X122176999Y-69544381D01*
X122166347Y-69513194D01*
X122275840Y-69513194D01*
X122301601Y-69541101D01*
X122331733Y-69558103D01*
X122393749Y-69596411D01*
X122449043Y-69647501D01*
X122505866Y-69721312D01*
X122572466Y-69827785D01*
X122610948Y-69894503D01*
X122683428Y-70010766D01*
X122747842Y-70086751D01*
X122810916Y-70131319D01*
X122871113Y-70161516D01*
X122907703Y-70172805D01*
X122944045Y-70165800D01*
X123003500Y-70141118D01*
X123014058Y-70136680D01*
X123072777Y-70108081D01*
X123087233Y-70087010D01*
X123072074Y-70071684D01*
X123014797Y-70051466D01*
X122973109Y-70046744D01*
X122868193Y-70025007D01*
X122779495Y-69959107D01*
X122703087Y-69845726D01*
X122681247Y-69800341D01*
X122623395Y-69692884D01*
X122552841Y-69593333D01*
X122478772Y-69512032D01*
X122410375Y-69459325D01*
X122365411Y-69444696D01*
X122310744Y-69463528D01*
X122289096Y-69482305D01*
X122275840Y-69513194D01*
X122166347Y-69513194D01*
X122157584Y-69487536D01*
X122178515Y-69433567D01*
X122234588Y-69390249D01*
X122320596Y-69365360D01*
X122398008Y-69363208D01*
X122450445Y-69384632D01*
X122519370Y-69434915D01*
X122589989Y-69500978D01*
X122647510Y-69569744D01*
X122666471Y-69600539D01*
X122702463Y-69670141D01*
X122907102Y-69476263D01*
X123011555Y-69379669D01*
X123121578Y-69281777D01*
X123220105Y-69197628D01*
X123260991Y-69164404D01*
X123341811Y-69096830D01*
X123389702Y-69043670D01*
X123415207Y-68990230D01*
X123427314Y-68932583D01*
X123428768Y-68761908D01*
X123384089Y-68601071D01*
X123296952Y-68461820D01*
X123271427Y-68434217D01*
X123199081Y-68370683D01*
X123117721Y-68321908D01*
X123009979Y-68278432D01*
X122947708Y-68257902D01*
X122757669Y-68192949D01*
X122614007Y-68128619D01*
X122512321Y-68057354D01*
X122448211Y-67971595D01*
X122417275Y-67863783D01*
X122415112Y-67726358D01*
X122437321Y-67551762D01*
X122461234Y-67422373D01*
X122503613Y-67183657D01*
X122527159Y-66989170D01*
X122531990Y-66834381D01*
X122518228Y-66714755D01*
X122485993Y-66625760D01*
X122482552Y-66619711D01*
X122413675Y-66533741D01*
X122334291Y-66497558D01*
X122239113Y-66509830D01*
X122170036Y-66541089D01*
X122087597Y-66580292D01*
X122043915Y-66585606D01*
X122037330Y-66556360D01*
X122062937Y-66497745D01*
X122149965Y-66374390D01*
X122264699Y-66374390D01*
X122273576Y-66398776D01*
X122325081Y-66410252D01*
X122329598Y-66410299D01*
X122401473Y-66432877D01*
X122477769Y-66491991D01*
X122545870Y-66574714D01*
X122593162Y-66668117D01*
X122598805Y-66686191D01*
X122615151Y-66754954D01*
X122623606Y-66823127D01*
X122623459Y-66900240D01*
X122614001Y-66995824D01*
X122594520Y-67119409D01*
X122564308Y-67280526D01*
X122548594Y-67359942D01*
X122518040Y-67523984D01*
X122496567Y-67662748D01*
X122485261Y-67768014D01*
X122485204Y-67831559D01*
X122485903Y-67835514D01*
X122525223Y-67933558D01*
X122601693Y-68016785D01*
X122720070Y-68088815D01*
X122885112Y-68153265D01*
X122917183Y-68163428D01*
X123038652Y-68205401D01*
X123153444Y-68252850D01*
X123243945Y-68298180D01*
X123274164Y-68317373D01*
X123354537Y-68393947D01*
X123424677Y-68492935D01*
X123473764Y-68596180D01*
X123491040Y-68681276D01*
X123497524Y-68726382D01*
X123507753Y-68738414D01*
X123514364Y-68714773D01*
X123514836Y-68653245D01*
X123510099Y-68579984D01*
X123480346Y-68426093D01*
X123423590Y-68277963D01*
X123347384Y-68151508D01*
X123267463Y-68068659D01*
X123192317Y-68023195D01*
X123092466Y-67977568D01*
X123021247Y-67951969D01*
X122887181Y-67905897D01*
X122786795Y-67857398D01*
X122717044Y-67799202D01*
X122674882Y-67724036D01*
X122657263Y-67624627D01*
X122661143Y-67493704D01*
X122683475Y-67323995D01*
X122705088Y-67197031D01*
X122718628Y-67035723D01*
X122707683Y-66862182D01*
X122675334Y-66690915D01*
X122624665Y-66536428D01*
X122558755Y-66413225D01*
X122531198Y-66378556D01*
X122467853Y-66342250D01*
X122380952Y-66332154D01*
X122302963Y-66347701D01*
X122264699Y-66374390D01*
X122149965Y-66374390D01*
X122152313Y-66371062D01*
X122255815Y-66286941D01*
X122367591Y-66248062D01*
X122481795Y-66257103D01*
G37*
G36*
X120977644Y-70906866D02*
G01*
X120979815Y-70948816D01*
X120984139Y-71010299D01*
X121006395Y-71035518D01*
X121060010Y-71040371D01*
X121147028Y-71051993D01*
X121212139Y-71082187D01*
X121241044Y-71123945D01*
X121241401Y-71129289D01*
X121221448Y-71163472D01*
X121170742Y-71211122D01*
X121136766Y-71236560D01*
X121076094Y-71280576D01*
X121038333Y-71311764D01*
X121032132Y-71319636D01*
X121042939Y-71347231D01*
X121070163Y-71404344D01*
X121084449Y-71432750D01*
X121127768Y-71530116D01*
X121136935Y-71588630D01*
X121110288Y-71609808D01*
X121046163Y-71595163D01*
X120953656Y-71551887D01*
X120835942Y-71490279D01*
X120783625Y-71597507D01*
X120734245Y-71681602D01*
X120691962Y-71715554D01*
X120657737Y-71703600D01*
X120648071Y-71669588D01*
X120641543Y-71600015D01*
X120639753Y-71531305D01*
X120631868Y-71405164D01*
X120604074Y-71313521D01*
X120550163Y-71240381D01*
X120514278Y-71208045D01*
X120468921Y-71156747D01*
X120468805Y-71127413D01*
X120563835Y-71127413D01*
X120627967Y-71203630D01*
X120676009Y-71282978D01*
X120707010Y-71374023D01*
X120708431Y-71381981D01*
X120725843Y-71442428D01*
X120747885Y-71468943D01*
X120765562Y-71456293D01*
X120770546Y-71418127D01*
X120774064Y-71390492D01*
X120791970Y-71384041D01*
X120835292Y-71400040D01*
X120902381Y-71433281D01*
X120969980Y-71465866D01*
X120998984Y-71468738D01*
X120995472Y-71435666D01*
X120967902Y-71366112D01*
X120929832Y-71274996D01*
X121033299Y-71206524D01*
X121094010Y-71163853D01*
X121131231Y-71132884D01*
X121136766Y-71125027D01*
X121114177Y-71120022D01*
X121058756Y-71124752D01*
X121048297Y-71126358D01*
X120962226Y-71124972D01*
X120913212Y-71087391D01*
X120901339Y-71032959D01*
X120892624Y-70996344D01*
X120880973Y-70992413D01*
X120847649Y-71006621D01*
X120781646Y-71034726D01*
X120712221Y-71064273D01*
X120563835Y-71127413D01*
X120468805Y-71127413D01*
X120468740Y-71111048D01*
X120515911Y-71067295D01*
X120612611Y-71021838D01*
X120629058Y-71015567D01*
X120723852Y-70976036D01*
X120809240Y-70933626D01*
X120850705Y-70908379D01*
X120920012Y-70866740D01*
X120960215Y-70865575D01*
X120977644Y-70906866D01*
G37*
G36*
X118347558Y-70217896D02*
G01*
X118391404Y-70243701D01*
X118472536Y-70282953D01*
X118577908Y-70279196D01*
X118652306Y-70255362D01*
X118718566Y-70235359D01*
X118748095Y-70248064D01*
X118742683Y-70296648D01*
X118713906Y-70364496D01*
X118661688Y-70472310D01*
X118765435Y-70569083D01*
X118830482Y-70638312D01*
X118849625Y-70683867D01*
X118821787Y-70707808D01*
X118745894Y-70712193D01*
X118692863Y-70708037D01*
X118551622Y-70693460D01*
X118496495Y-70801519D01*
X118450623Y-70878063D01*
X118414155Y-70905183D01*
X118383236Y-70884065D01*
X118363307Y-70842478D01*
X118343420Y-70767352D01*
X118337796Y-70714596D01*
X118327766Y-70671630D01*
X118288421Y-70647029D01*
X118239900Y-70635449D01*
X118159913Y-70617963D01*
X118122912Y-70597345D01*
X118120165Y-70562599D01*
X118139969Y-70509669D01*
X118154547Y-70468720D01*
X118275779Y-70468720D01*
X118297406Y-70538627D01*
X118341331Y-70573490D01*
X118347091Y-70574597D01*
X118390031Y-70595859D01*
X118409579Y-70652086D01*
X118411390Y-70667611D01*
X118419861Y-70725476D01*
X118429499Y-70752383D01*
X118430337Y-70752626D01*
X118448234Y-70731964D01*
X118477863Y-70681397D01*
X118482168Y-70673185D01*
X118514835Y-70621380D01*
X118553046Y-70603606D01*
X118619203Y-70609559D01*
X118620172Y-70609718D01*
X118717096Y-70625693D01*
X118632575Y-70569190D01*
X118579197Y-70529846D01*
X118563205Y-70498608D01*
X118577351Y-70456289D01*
X118584570Y-70442073D01*
X118606750Y-70392445D01*
X118600419Y-70372781D01*
X118577536Y-70368877D01*
X118526133Y-70363344D01*
X118447579Y-70352418D01*
X118412268Y-70346985D01*
X118337258Y-70337762D01*
X118298946Y-70343387D01*
X118283019Y-70367088D01*
X118280769Y-70376658D01*
X118275779Y-70468720D01*
X118154547Y-70468720D01*
X118169967Y-70425403D01*
X118195722Y-70331071D01*
X118197930Y-70321009D01*
X118220424Y-70248835D01*
X118254078Y-70215029D01*
X118281096Y-70207733D01*
X118347558Y-70217896D01*
G37*
G36*
X118079611Y-69096722D02*
G01*
X118245230Y-69149293D01*
X118373201Y-69235132D01*
X118461697Y-69352929D01*
X118508888Y-69501374D01*
X118513136Y-69533920D01*
X118516956Y-69645378D01*
X118500335Y-69711545D01*
X118495154Y-69718872D01*
X118441031Y-69755594D01*
X118387280Y-69742870D01*
X118369889Y-69725901D01*
X118342750Y-69681099D01*
X118310033Y-69612634D01*
X118304065Y-69598556D01*
X118236701Y-69492402D01*
X118138802Y-69408589D01*
X118023536Y-69353479D01*
X117904072Y-69333433D01*
X117796717Y-69353472D01*
X117739445Y-69383824D01*
X117710758Y-69411608D01*
X117709990Y-69415334D01*
X117688041Y-69462835D01*
X117638279Y-69498961D01*
X117585698Y-69506293D01*
X117539388Y-69482882D01*
X117473330Y-69436803D01*
X117434826Y-69405845D01*
X117373680Y-69345322D01*
X117354266Y-69299128D01*
X117465087Y-69299128D01*
X117465264Y-69300824D01*
X117487117Y-69333466D01*
X117534587Y-69375912D01*
X117535912Y-69376906D01*
X117602779Y-69426829D01*
X117676924Y-69347456D01*
X117776704Y-69275123D01*
X117893283Y-69246957D01*
X118019112Y-69260819D01*
X118146640Y-69314571D01*
X118268319Y-69406073D01*
X118376599Y-69533186D01*
X118386960Y-69548627D01*
X118429351Y-69613320D01*
X118437723Y-69541102D01*
X118430206Y-69468973D01*
X118400622Y-69391200D01*
X118397525Y-69385720D01*
X118339771Y-69319439D01*
X118249671Y-69252532D01*
X118206043Y-69227553D01*
X118123926Y-69187888D01*
X118054477Y-69166487D01*
X117976169Y-69159174D01*
X117867472Y-69161775D01*
X117866941Y-69161800D01*
X117750262Y-69174257D01*
X117640596Y-69198074D01*
X117549085Y-69229396D01*
X117486868Y-69264365D01*
X117465087Y-69299128D01*
X117354266Y-69299128D01*
X117352593Y-69295148D01*
X117374101Y-69248250D01*
X117440745Y-69197556D01*
X117526508Y-69150412D01*
X117610332Y-69111982D01*
X117687719Y-69090081D01*
X117779541Y-69080454D01*
X117878171Y-69078731D01*
X118079611Y-69096722D01*
G37*
G36*
X119485355Y-68813247D02*
G01*
X119555932Y-68856191D01*
X119607732Y-68927939D01*
X119632329Y-69016752D01*
X119621300Y-69110891D01*
X119620795Y-69112356D01*
X119565798Y-69216899D01*
X119492806Y-69275482D01*
X119407154Y-69286117D01*
X119314174Y-69246812D01*
X119296113Y-69233529D01*
X119245825Y-69177889D01*
X119227907Y-69104800D01*
X119227309Y-69082996D01*
X119305664Y-69082996D01*
X119325899Y-69157306D01*
X119378766Y-69197616D01*
X119452509Y-69197618D01*
X119490494Y-69182190D01*
X119524741Y-69138243D01*
X119541202Y-69066899D01*
X119538193Y-68990537D01*
X119514032Y-68931537D01*
X119509701Y-68926756D01*
X119452310Y-68897951D01*
X119392892Y-68911699D01*
X119342150Y-68959805D01*
X119310782Y-69034078D01*
X119305664Y-69082996D01*
X119227309Y-69082996D01*
X119227188Y-69078584D01*
X119245948Y-68985217D01*
X119294261Y-68896904D01*
X119360179Y-68831697D01*
X119404424Y-68810846D01*
X119485355Y-68813247D01*
G37*
G36*
X122899817Y-68606060D02*
G01*
X122903398Y-68614358D01*
X122911975Y-68696386D01*
X122889467Y-68795760D01*
X122841412Y-68892464D01*
X122817637Y-68924311D01*
X122709314Y-69018110D01*
X122578790Y-69066988D01*
X122423929Y-69071332D01*
X122242596Y-69031525D01*
X122235427Y-69029235D01*
X122139329Y-68995384D01*
X122050871Y-68959576D01*
X122012175Y-68941329D01*
X121929196Y-68907245D01*
X121838215Y-68882119D01*
X121835316Y-68881563D01*
X121768029Y-68863598D01*
X121726071Y-68842533D01*
X121722483Y-68838435D01*
X121724097Y-68798044D01*
X121735437Y-68786476D01*
X121869207Y-68786476D01*
X121891929Y-68802074D01*
X121951932Y-68829795D01*
X122036970Y-68864901D01*
X122134798Y-68902658D01*
X122233169Y-68938329D01*
X122319837Y-68967178D01*
X122379300Y-68983756D01*
X122469701Y-68987733D01*
X122578114Y-68970268D01*
X122677188Y-68935983D01*
X122684984Y-68932090D01*
X122746500Y-68888341D01*
X122784703Y-68843151D01*
X122799647Y-68808174D01*
X122782298Y-68804182D01*
X122744538Y-68817263D01*
X122624088Y-68840729D01*
X122468457Y-68832079D01*
X122274821Y-68791139D01*
X122260776Y-68787335D01*
X122142606Y-68761337D01*
X122033709Y-68748713D01*
X121944794Y-68749486D01*
X121886570Y-68763680D01*
X121869207Y-68786476D01*
X121735437Y-68786476D01*
X121767302Y-68753972D01*
X121842461Y-68713178D01*
X121937440Y-68683175D01*
X122016038Y-68668600D01*
X122084235Y-68666150D01*
X122161145Y-68677198D01*
X122265878Y-68703119D01*
X122284234Y-68708119D01*
X122399626Y-68735604D01*
X122512744Y-68755691D01*
X122601091Y-68764465D01*
X122608797Y-68764573D01*
X122686756Y-68759496D01*
X122740064Y-68736424D01*
X122792420Y-68683593D01*
X122806432Y-68666478D01*
X122855050Y-68610130D01*
X122883065Y-68591663D01*
X122899817Y-68606060D01*
G37*
G36*
X119068467Y-67992610D02*
G01*
X119150861Y-68041036D01*
X119216406Y-68131218D01*
X119240529Y-68189869D01*
X119301027Y-68322236D01*
X119380246Y-68407102D01*
X119480640Y-68445386D01*
X119604660Y-68438003D01*
X119754759Y-68385870D01*
X119759355Y-68383778D01*
X119890481Y-68330303D01*
X120000617Y-68304361D01*
X120100020Y-68308475D01*
X120198944Y-68345170D01*
X120307643Y-68416967D01*
X120436374Y-68526389D01*
X120472032Y-68559126D01*
X120568232Y-68646346D01*
X120642741Y-68704023D01*
X120711621Y-68738835D01*
X120790931Y-68757460D01*
X120896733Y-68766577D01*
X120979815Y-68770270D01*
X121115433Y-68782112D01*
X121226407Y-68809343D01*
X121326416Y-68851731D01*
X121404255Y-68895262D01*
X121458602Y-68936013D01*
X121476828Y-68962686D01*
X121467206Y-68989804D01*
X121433640Y-68992146D01*
X121369083Y-68968419D01*
X121286521Y-68927799D01*
X121197766Y-68890247D01*
X121093560Y-68864820D01*
X120957613Y-68847853D01*
X120916026Y-68844449D01*
X120793470Y-68833243D01*
X120700653Y-68816706D01*
X120624029Y-68788257D01*
X120550053Y-68741314D01*
X120465177Y-68669294D01*
X120369730Y-68578999D01*
X120258567Y-68478500D01*
X120166595Y-68416073D01*
X120080739Y-68388611D01*
X119987922Y-68393004D01*
X119875069Y-68426143D01*
X119818447Y-68447927D01*
X119708548Y-68486711D01*
X119602351Y-68515420D01*
X119519961Y-68528778D01*
X119508886Y-68529145D01*
X119386592Y-68504655D01*
X119283729Y-68433981D01*
X119205622Y-68321322D01*
X119185781Y-68274549D01*
X119146156Y-68176018D01*
X119112232Y-68118093D01*
X119076059Y-68090876D01*
X119033028Y-68084449D01*
X118960347Y-68105246D01*
X118918619Y-68159923D01*
X118913285Y-68194315D01*
X118901351Y-68235390D01*
X118875093Y-68234101D01*
X118848827Y-68191862D01*
X118847482Y-68187803D01*
X118849999Y-68119402D01*
X118888328Y-68050672D01*
X118949804Y-68000960D01*
X118976195Y-67991180D01*
X119068467Y-67992610D01*
G37*
G36*
X119467318Y-65068895D02*
G01*
X119565392Y-65097329D01*
X119668275Y-65136942D01*
X119765596Y-65184437D01*
X119846984Y-65236516D01*
X119882275Y-65266992D01*
X119956522Y-65351784D01*
X120005093Y-65437104D01*
X120029440Y-65532993D01*
X120031015Y-65649492D01*
X120011270Y-65796641D01*
X119980451Y-65946048D01*
X119954029Y-66069556D01*
X119940106Y-66157349D01*
X119937713Y-66224264D01*
X119945877Y-66285140D01*
X119955620Y-66325616D01*
X119989002Y-66425184D01*
X120033696Y-66491368D01*
X120101173Y-66532736D01*
X120202905Y-66557859D01*
X120280308Y-66568160D01*
X120440327Y-66592952D01*
X120561916Y-66629776D01*
X120658552Y-66684114D01*
X120736522Y-66753781D01*
X120798954Y-66827768D01*
X120845427Y-66906080D01*
X120878815Y-66998729D01*
X120901990Y-67115725D01*
X120917828Y-67267078D01*
X120927036Y-67417405D01*
X120939981Y-67609173D01*
X120958620Y-67757603D01*
X120985108Y-67871553D01*
X121021602Y-67959882D01*
X121070256Y-68031449D01*
X121078907Y-68041478D01*
X121120358Y-68072975D01*
X121197684Y-68118920D01*
X121298931Y-68172563D01*
X121387235Y-68215600D01*
X121543125Y-68294893D01*
X121653416Y-68366681D01*
X121723365Y-68435742D01*
X121758226Y-68506859D01*
X121764573Y-68558831D01*
X121756305Y-68618008D01*
X121735262Y-68629378D01*
X121707077Y-68594104D01*
X121686242Y-68542665D01*
X121656345Y-68478377D01*
X121607751Y-68423127D01*
X121531889Y-68370574D01*
X121420189Y-68314379D01*
X121317973Y-68270263D01*
X121177379Y-68204582D01*
X121068743Y-68133458D01*
X120987599Y-68049001D01*
X120929481Y-67943323D01*
X120889923Y-67808533D01*
X120864461Y-67636742D01*
X120849865Y-67443211D01*
X120838359Y-67271181D01*
X120824520Y-67141747D01*
X120806909Y-67045197D01*
X120784087Y-66971817D01*
X120777863Y-66956999D01*
X120691955Y-66819696D01*
X120573018Y-66722354D01*
X120420327Y-66664554D01*
X120238331Y-66645872D01*
X120097179Y-66625223D01*
X119987463Y-66564587D01*
X119924910Y-66489379D01*
X119886300Y-66403767D01*
X119867321Y-66304632D01*
X119867648Y-66182039D01*
X119886953Y-66026052D01*
X119906151Y-65919272D01*
X119934043Y-65754385D01*
X119947360Y-65624868D01*
X119945418Y-65537643D01*
X119944521Y-65532368D01*
X119896724Y-65414027D01*
X119804401Y-65309572D01*
X119674619Y-65224232D01*
X119514448Y-65163235D01*
X119416838Y-65142099D01*
X119336315Y-65120027D01*
X119305991Y-65088025D01*
X119305664Y-65083647D01*
X119327083Y-65058756D01*
X119384425Y-65054938D01*
X119467318Y-65068895D01*
G37*
G36*
X118037694Y-68205353D02*
G01*
X118091940Y-68241426D01*
X118180632Y-68309679D01*
X118274314Y-68381744D01*
X118295943Y-68398378D01*
X118366287Y-68445547D01*
X118433696Y-68469123D01*
X118522529Y-68476597D01*
X118550990Y-68476828D01*
X118640827Y-68479980D01*
X118688499Y-68491123D01*
X118703873Y-68512787D01*
X118704016Y-68516066D01*
X118686424Y-68551029D01*
X118671318Y-68555661D01*
X118619146Y-68561381D01*
X118586303Y-68567584D01*
X118530600Y-68567737D01*
X118449679Y-68554842D01*
X118409716Y-68545108D01*
X118326206Y-68517163D01*
X118258661Y-68485847D01*
X118239685Y-68473199D01*
X118194346Y-68434820D01*
X118127708Y-68377471D01*
X118082674Y-68338366D01*
X118007195Y-68282371D01*
X117938204Y-68247683D01*
X117907972Y-68241401D01*
X117835715Y-68259769D01*
X117788386Y-68305948D01*
X117779441Y-68366543D01*
X117779994Y-68368781D01*
X117778160Y-68417804D01*
X117764364Y-68436318D01*
X117736750Y-68429923D01*
X117712654Y-68390339D01*
X117700053Y-68336505D01*
X117704324Y-68293718D01*
X117756050Y-68211095D01*
X117834633Y-68168048D01*
X117931404Y-68165744D01*
X118037694Y-68205353D01*
G37*
G36*
X123802122Y-68067933D02*
G01*
X123881923Y-68126387D01*
X123939983Y-68201016D01*
X123961895Y-68279761D01*
X123952558Y-68347439D01*
X123929999Y-68392223D01*
X123929050Y-68393046D01*
X123847170Y-68431062D01*
X123753530Y-68432529D01*
X123701646Y-68413961D01*
X123644195Y-68368005D01*
X123611757Y-68302050D01*
X123602502Y-68232335D01*
X123679202Y-68232335D01*
X123692846Y-68292570D01*
X123739435Y-68337340D01*
X123800294Y-68353288D01*
X123835146Y-68343870D01*
X123874889Y-68301678D01*
X123883419Y-68269842D01*
X123864297Y-68212723D01*
X123817922Y-68176843D01*
X123760779Y-68165230D01*
X123709355Y-68180913D01*
X123680135Y-68226918D01*
X123679202Y-68232335D01*
X123602502Y-68232335D01*
X123598532Y-68202430D01*
X123597513Y-68168643D01*
X123604688Y-68083702D01*
X123630679Y-68043536D01*
X123634971Y-68041569D01*
X123714999Y-68036159D01*
X123802122Y-68067933D01*
G37*
G36*
X120406458Y-67148961D02*
G01*
X120430390Y-67173375D01*
X120430471Y-67175438D01*
X120421660Y-67216700D01*
X120398997Y-67288189D01*
X120378154Y-67345749D01*
X120336301Y-67504044D01*
X120327815Y-67660328D01*
X120349988Y-67805851D01*
X120400110Y-67931860D01*
X120475475Y-68029605D01*
X120573373Y-68090334D01*
X120611896Y-68101112D01*
X120667675Y-68122460D01*
X120692030Y-68151970D01*
X120692070Y-68153115D01*
X120668478Y-68171816D01*
X120607107Y-68183489D01*
X120522059Y-68187823D01*
X120427441Y-68184506D01*
X120337355Y-68173225D01*
X120289732Y-68162024D01*
X120178331Y-68103397D01*
X120091048Y-68008065D01*
X120028879Y-67886253D01*
X119992817Y-67748184D01*
X119984474Y-67614007D01*
X120063687Y-67614007D01*
X120074138Y-67751316D01*
X120111742Y-67882291D01*
X120175951Y-67994523D01*
X120234536Y-68053807D01*
X120300680Y-68095730D01*
X120352124Y-68110161D01*
X120377300Y-68094421D01*
X120378167Y-68087046D01*
X120367840Y-68052174D01*
X120341112Y-67986204D01*
X120313026Y-67923555D01*
X120258813Y-67747346D01*
X120249759Y-67555848D01*
X120284052Y-67369245D01*
X120302925Y-67287543D01*
X120295028Y-67249776D01*
X120257902Y-67253552D01*
X120200728Y-67288200D01*
X120126433Y-67370038D01*
X120080936Y-67482778D01*
X120063687Y-67614007D01*
X119984474Y-67614007D01*
X119983857Y-67604083D01*
X120002994Y-67464176D01*
X120051223Y-67338685D01*
X120129538Y-67237837D01*
X120195300Y-67191272D01*
X120274582Y-67158875D01*
X120349745Y-67144450D01*
X120406458Y-67148961D01*
G37*
G36*
X121990697Y-67763301D02*
G01*
X122056044Y-67816885D01*
X122084461Y-67902810D01*
X122085015Y-67918510D01*
X122063205Y-67993962D01*
X122008034Y-68050090D01*
X121934891Y-68079878D01*
X121859166Y-68076313D01*
X121807393Y-68045056D01*
X121755553Y-67961920D01*
X121755025Y-67882248D01*
X121832992Y-67882248D01*
X121838165Y-67943795D01*
X121842153Y-67951984D01*
X121886542Y-67999340D01*
X121944279Y-67996489D01*
X121969590Y-67982995D01*
X121996680Y-67940253D01*
X121991741Y-67884734D01*
X121960432Y-67839949D01*
X121932314Y-67828140D01*
X121867975Y-67838752D01*
X121832992Y-67882248D01*
X121755025Y-67882248D01*
X121754941Y-67869525D01*
X121769669Y-67829824D01*
X121810087Y-67775433D01*
X121874418Y-67752177D01*
X121896888Y-67749658D01*
X121990697Y-67763301D01*
G37*
G36*
X123500275Y-66672478D02*
G01*
X123510803Y-66680030D01*
X123513519Y-66703204D01*
X123507961Y-66750659D01*
X123493667Y-66831057D01*
X123470177Y-66953059D01*
X123466369Y-66972708D01*
X123441620Y-67114402D01*
X123419409Y-67266193D01*
X123403389Y-67402269D01*
X123399755Y-67443563D01*
X123385398Y-67608938D01*
X123370622Y-67725495D01*
X123354229Y-67796728D01*
X123335020Y-67826130D01*
X123311796Y-67817194D01*
X123285300Y-67777085D01*
X123222196Y-67613281D01*
X123190031Y-67426863D01*
X123190024Y-67421282D01*
X123262249Y-67421282D01*
X123269850Y-67475932D01*
X123279001Y-67511809D01*
X123287753Y-67519300D01*
X123297768Y-67493074D01*
X123310706Y-67427797D01*
X123328226Y-67318134D01*
X123336917Y-67260453D01*
X123355013Y-67136813D01*
X123369724Y-67031561D01*
X123379549Y-66955769D01*
X123382989Y-66920508D01*
X123382986Y-66920391D01*
X123373004Y-66925265D01*
X123348612Y-66967404D01*
X123333239Y-66998867D01*
X123288814Y-67130010D01*
X123264022Y-67279306D01*
X123262249Y-67421282D01*
X123190024Y-67421282D01*
X123189777Y-67236187D01*
X123222405Y-67059605D01*
X123244108Y-66998867D01*
X123288240Y-66909341D01*
X123343133Y-66819912D01*
X123400048Y-66742572D01*
X123450244Y-66689315D01*
X123482395Y-66671885D01*
X123500275Y-66672478D01*
G37*
G36*
X121834259Y-67004228D02*
G01*
X121827520Y-67073874D01*
X121802121Y-67171294D01*
X121811614Y-67206869D01*
X121865793Y-67241800D01*
X121897207Y-67255104D01*
X121958394Y-67285393D01*
X121988881Y-67313174D01*
X121989064Y-67322381D01*
X121957925Y-67347745D01*
X121896251Y-67383935D01*
X121857544Y-67403640D01*
X121775786Y-67452867D01*
X121724988Y-67514459D01*
X121697183Y-67575934D01*
X121655935Y-67657628D01*
X121610111Y-67688487D01*
X121553316Y-67669961D01*
X121496567Y-67621443D01*
X121425939Y-67550815D01*
X121358451Y-67614217D01*
X121310702Y-67653606D01*
X121282753Y-67657108D01*
X121266582Y-67639067D01*
X121244921Y-67571367D01*
X121254506Y-67479135D01*
X121255152Y-67477022D01*
X121348571Y-67477022D01*
X121357905Y-67489964D01*
X121391153Y-67458364D01*
X121400251Y-67447091D01*
X121450980Y-67392501D01*
X121484694Y-67385516D01*
X121507956Y-67427040D01*
X121517064Y-67463182D01*
X121537850Y-67542940D01*
X121558654Y-67575087D01*
X121584731Y-67564065D01*
X121605530Y-67537961D01*
X121649823Y-67478633D01*
X121706128Y-67407725D01*
X121716977Y-67394544D01*
X121759739Y-67340491D01*
X121771101Y-67310696D01*
X121753395Y-67289429D01*
X121734407Y-67277101D01*
X121697178Y-67234611D01*
X121697284Y-67203635D01*
X121698397Y-67175115D01*
X121671175Y-67179065D01*
X121616201Y-67190387D01*
X121543306Y-67195057D01*
X121490785Y-67199838D01*
X121455397Y-67222329D01*
X121423730Y-67274745D01*
X121401573Y-67324159D01*
X121363133Y-67421200D01*
X121348571Y-67477022D01*
X121255152Y-67477022D01*
X121281393Y-67391246D01*
X121306454Y-67293148D01*
X121319123Y-67187853D01*
X121319482Y-67172388D01*
X121319352Y-67114245D01*
X121325558Y-67081497D01*
X121348738Y-67070556D01*
X121399532Y-67077836D01*
X121488579Y-67099748D01*
X121515217Y-67106389D01*
X121574049Y-67105696D01*
X121645472Y-67071979D01*
X121689189Y-67041884D01*
X121767286Y-66990746D01*
X121814912Y-66977356D01*
X121834259Y-67004228D01*
G37*
G36*
X118333047Y-66585594D02*
G01*
X118332778Y-66627126D01*
X118309423Y-66663636D01*
X118282092Y-66720244D01*
X118299409Y-66782516D01*
X118355023Y-66844439D01*
X118442585Y-66899998D01*
X118555745Y-66943179D01*
X118620614Y-66958376D01*
X118777745Y-66988004D01*
X118893315Y-67011576D01*
X118977082Y-67033196D01*
X119038809Y-67056964D01*
X119088254Y-67086983D01*
X119135178Y-67127355D01*
X119189340Y-67182183D01*
X119213937Y-67207751D01*
X119314053Y-67307622D01*
X119391599Y-67373270D01*
X119456843Y-67411199D01*
X119520051Y-67427914D01*
X119565530Y-67430484D01*
X119628581Y-67441675D01*
X119645726Y-67469722D01*
X119623309Y-67496861D01*
X119566059Y-67508183D01*
X119488975Y-67503799D01*
X119407057Y-67483822D01*
X119368247Y-67467664D01*
X119309797Y-67427341D01*
X119235316Y-67360515D01*
X119162442Y-67283332D01*
X119094306Y-67208180D01*
X119033497Y-67154837D01*
X118967326Y-67117278D01*
X118883103Y-67089478D01*
X118768138Y-67065411D01*
X118667613Y-67048377D01*
X118553295Y-67026249D01*
X118450630Y-67000149D01*
X118376711Y-66974632D01*
X118360672Y-66966608D01*
X118300730Y-66913626D01*
X118246610Y-66837926D01*
X118212332Y-66761274D01*
X118207003Y-66728019D01*
X118219965Y-66671658D01*
X118250554Y-66613192D01*
X118286325Y-66573518D01*
X118302757Y-66567250D01*
X118333047Y-66585594D01*
G37*
G36*
X118982223Y-65828106D02*
G01*
X118993338Y-65835932D01*
X119064162Y-65870383D01*
X119158799Y-65897208D01*
X119206645Y-65904937D01*
X119324536Y-65924448D01*
X119402884Y-65951016D01*
X119435800Y-65982514D01*
X119436457Y-65987836D01*
X119415154Y-66011036D01*
X119362250Y-66043247D01*
X119344902Y-66051889D01*
X119286376Y-66084465D01*
X119255050Y-66110994D01*
X119253394Y-66115591D01*
X119273725Y-66139591D01*
X119325926Y-66179835D01*
X119372246Y-66210692D01*
X119436653Y-66257452D01*
X119475545Y-66297630D01*
X119481343Y-66315326D01*
X119451985Y-66333939D01*
X119386782Y-66350366D01*
X119329792Y-66357981D01*
X119187950Y-66371061D01*
X119109475Y-66534208D01*
X119060892Y-66629787D01*
X119026639Y-66681874D01*
X119002108Y-66695749D01*
X118983661Y-66678424D01*
X118972467Y-66642053D01*
X118958420Y-66575751D01*
X118954564Y-66554171D01*
X118937131Y-66458820D01*
X118919203Y-66404465D01*
X118891054Y-66380606D01*
X118842955Y-66376743D01*
X118793412Y-66380218D01*
X118698592Y-66381569D01*
X118649931Y-66364572D01*
X118646395Y-66325865D01*
X118667737Y-66292300D01*
X118782492Y-66292300D01*
X118805239Y-66299731D01*
X118862028Y-66296383D01*
X118884513Y-66293026D01*
X118986535Y-66275790D01*
X119004526Y-66382282D01*
X119017885Y-66448234D01*
X119029753Y-66485606D01*
X119032767Y-66488774D01*
X119049633Y-66467755D01*
X119080388Y-66414641D01*
X119096395Y-66384140D01*
X119140795Y-66313553D01*
X119186003Y-66283100D01*
X119214641Y-66279506D01*
X119266702Y-66272390D01*
X119271814Y-66249812D01*
X119229453Y-66209923D01*
X119186634Y-66180519D01*
X119126832Y-66133499D01*
X119115357Y-66095943D01*
X119153334Y-66060646D01*
X119209572Y-66033581D01*
X119292585Y-65998408D01*
X119214109Y-65981580D01*
X119132940Y-65963880D01*
X119042797Y-65943837D01*
X119037539Y-65942653D01*
X118939444Y-65920554D01*
X118939444Y-66024138D01*
X118928338Y-66108717D01*
X118886599Y-66175333D01*
X118860968Y-66201030D01*
X118811809Y-66250939D01*
X118784483Y-66286424D01*
X118782492Y-66292300D01*
X118667737Y-66292300D01*
X118686949Y-66262085D01*
X118738876Y-66203004D01*
X118804341Y-66129912D01*
X118840958Y-66074864D01*
X118857046Y-66019087D01*
X118860924Y-65943806D01*
X118860968Y-65927485D01*
X118865221Y-65836234D01*
X118882413Y-65792321D01*
X118919197Y-65791145D01*
X118982223Y-65828106D01*
G37*
G36*
X122662581Y-65403620D02*
G01*
X122641166Y-65449968D01*
X122607787Y-65521077D01*
X122610855Y-65596195D01*
X122652275Y-65686320D01*
X122692495Y-65746838D01*
X122806085Y-65922728D01*
X122878346Y-66075995D01*
X122911805Y-66212544D01*
X122914895Y-66266426D01*
X122909046Y-66362874D01*
X122893506Y-66427658D01*
X122870918Y-66452882D01*
X122854907Y-66445570D01*
X122844082Y-66410590D01*
X122837753Y-66343420D01*
X122837075Y-66310879D01*
X122818528Y-66142233D01*
X122759084Y-65992144D01*
X122673376Y-65869154D01*
X122576017Y-65731161D01*
X122527029Y-65610365D01*
X122526019Y-65505016D01*
X122571253Y-65415008D01*
X122618286Y-65375463D01*
X122652921Y-65373764D01*
X122662581Y-65403620D01*
G37*
G36*
X121275062Y-66003187D02*
G01*
X121323965Y-66059190D01*
X121346636Y-66132039D01*
X121335406Y-66212914D01*
X121282604Y-66292994D01*
X121281827Y-66293774D01*
X121198401Y-66347479D01*
X121110976Y-66349937D01*
X121025788Y-66301205D01*
X121015358Y-66291268D01*
X120967330Y-66213765D01*
X120968576Y-66180744D01*
X121064754Y-66180744D01*
X121065437Y-66241292D01*
X121070451Y-66251860D01*
X121112627Y-66277133D01*
X121172911Y-66271137D01*
X121226453Y-66238399D01*
X121262128Y-66178395D01*
X121262398Y-66118930D01*
X121234326Y-66073633D01*
X121184976Y-66056132D01*
X121138747Y-66069177D01*
X121092207Y-66115303D01*
X121064754Y-66180744D01*
X120968576Y-66180744D01*
X120970446Y-66131172D01*
X121024266Y-66047126D01*
X121047655Y-66024459D01*
X121129237Y-65977001D01*
X121207596Y-65972850D01*
X121275062Y-66003187D01*
G37*
G36*
X120282039Y-64903253D02*
G01*
X120272621Y-64960893D01*
X120264556Y-65038509D01*
X120299964Y-65121259D01*
X120381186Y-65212981D01*
X120473373Y-65289813D01*
X120586284Y-65381840D01*
X120661542Y-65460997D01*
X120707198Y-65539866D01*
X120731306Y-65631033D01*
X120739438Y-65705612D01*
X120740924Y-65807772D01*
X120729836Y-65876924D01*
X120708124Y-65906392D01*
X120683786Y-65896282D01*
X120673346Y-65861624D01*
X120666907Y-65793605D01*
X120665911Y-65750675D01*
X120655873Y-65638314D01*
X120620810Y-65544648D01*
X120553300Y-65457039D01*
X120445919Y-65362850D01*
X120431576Y-65351716D01*
X120349145Y-65284818D01*
X120279444Y-65222059D01*
X120236754Y-65176349D01*
X120235189Y-65174183D01*
X120211220Y-65116224D01*
X120197985Y-65038175D01*
X120196406Y-64959449D01*
X120207404Y-64899460D01*
X120221215Y-64880021D01*
X120262728Y-64872144D01*
X120282039Y-64903253D01*
G37*
G36*
X121955644Y-65227854D02*
G01*
X122031958Y-65282650D01*
X122078680Y-65359755D01*
X122090879Y-65447535D01*
X122063623Y-65534354D01*
X122016852Y-65589693D01*
X121938007Y-65640305D01*
X121865571Y-65643868D01*
X121787672Y-65599914D01*
X121764077Y-65579763D01*
X121694599Y-65492830D01*
X121672346Y-65422808D01*
X121759100Y-65422808D01*
X121773313Y-65492700D01*
X121804886Y-65538007D01*
X121872636Y-65559018D01*
X121948066Y-65543546D01*
X121983651Y-65519928D01*
X122003578Y-65472164D01*
X122003169Y-65403218D01*
X121983742Y-65339529D01*
X121973908Y-65324797D01*
X121916783Y-65291716D01*
X121842669Y-65289846D01*
X121795634Y-65308053D01*
X121766230Y-65353550D01*
X121759100Y-65422808D01*
X121672346Y-65422808D01*
X121665860Y-65402397D01*
X121675357Y-65318765D01*
X121720586Y-65252235D01*
X121799043Y-65213110D01*
X121854669Y-65207003D01*
X121955644Y-65227854D01*
G37*
G36*
X124089559Y-68922730D02*
G01*
X124112359Y-68938662D01*
X124176565Y-69011391D01*
X124190857Y-69092227D01*
X124154565Y-69173472D01*
X124134804Y-69195689D01*
X124072665Y-69246116D01*
X124015415Y-69255868D01*
X123941707Y-69229406D01*
X123884469Y-69176805D01*
X123860789Y-69101819D01*
X123863090Y-69079853D01*
X123939922Y-69079853D01*
X123944536Y-69115993D01*
X123979639Y-69148483D01*
X124033490Y-69148357D01*
X124086018Y-69118072D01*
X124103096Y-69096563D01*
X124116361Y-69053131D01*
X124086822Y-69015883D01*
X124080666Y-69011195D01*
X124031677Y-68984862D01*
X124004059Y-68981585D01*
X123960341Y-69019460D01*
X123939922Y-69079853D01*
X123863090Y-69079853D01*
X123869257Y-69020974D01*
X123908462Y-68950796D01*
X123968953Y-68910382D01*
X124031440Y-68899575D01*
X124089559Y-68922730D01*
G37*
G36*
X108367991Y-55323676D02*
G01*
X108628574Y-55547221D01*
X108780577Y-55858243D01*
X108795227Y-56206953D01*
X108717199Y-56430739D01*
X108584392Y-56543822D01*
X108290522Y-56709606D01*
X107858205Y-56918676D01*
X107310053Y-57161619D01*
X106668681Y-57429023D01*
X105956701Y-57711473D01*
X105196727Y-57999558D01*
X104411373Y-58283863D01*
X103623253Y-58554975D01*
X103577099Y-58570374D01*
X101071408Y-59332083D01*
X98589667Y-59935670D01*
X96080180Y-60391539D01*
X93491252Y-60710089D01*
X92530048Y-60793139D01*
X91915791Y-60828806D01*
X91153279Y-60854694D01*
X90287902Y-60870835D01*
X89365050Y-60877258D01*
X88430113Y-60873996D01*
X87528480Y-60861079D01*
X86705541Y-60838537D01*
X86006686Y-60806403D01*
X85740809Y-60788517D01*
X85117422Y-60734788D01*
X84475636Y-60668936D01*
X83849057Y-60595493D01*
X83271288Y-60518992D01*
X82775936Y-60443966D01*
X82396604Y-60374948D01*
X82166898Y-60316469D01*
X82132487Y-60301820D01*
X81907328Y-60081655D01*
X81826867Y-59764749D01*
X81901913Y-59394605D01*
X81905140Y-59386800D01*
X82015384Y-59168890D01*
X82154402Y-59018482D01*
X82352722Y-58929252D01*
X82640869Y-58894881D01*
X83049370Y-58909044D01*
X83608750Y-58965421D01*
X83818346Y-58990577D01*
X86692069Y-59248729D01*
X89564298Y-59319854D01*
X92423615Y-59205525D01*
X95258602Y-58907317D01*
X98057840Y-58426804D01*
X100809910Y-57765559D01*
X103503394Y-56925156D01*
X106097709Y-55919638D01*
X106697494Y-55671689D01*
X107223449Y-55470273D01*
X107646659Y-55325614D01*
X107938209Y-55247932D01*
X108027599Y-55237398D01*
X108367991Y-55323676D01*
G37*
G36*
X108043629Y-59453787D02*
G01*
X108218825Y-59645017D01*
X108287038Y-59783274D01*
X108376226Y-60184134D01*
X108301312Y-60533045D01*
X108149105Y-60730636D01*
X107978500Y-60825021D01*
X107643972Y-60960695D01*
X107169200Y-61129964D01*
X106577864Y-61325131D01*
X105893642Y-61538501D01*
X105140215Y-61762378D01*
X104341261Y-61989065D01*
X103933965Y-62100557D01*
X100551414Y-62917799D01*
X97142390Y-63546799D01*
X93691036Y-63990179D01*
X91315013Y-64186785D01*
X90659842Y-64219340D01*
X89852697Y-64243881D01*
X88935224Y-64260431D01*
X87949066Y-64269013D01*
X86935869Y-64269650D01*
X85937278Y-64262365D01*
X84994938Y-64247180D01*
X84150493Y-64224119D01*
X83445589Y-64193204D01*
X83266793Y-64182352D01*
X82563106Y-64133939D01*
X82026494Y-64090205D01*
X81630385Y-64046129D01*
X81348203Y-63996691D01*
X81153374Y-63936872D01*
X81019324Y-63861652D01*
X80919479Y-63766009D01*
X80893320Y-63733981D01*
X80739607Y-63421879D01*
X80699813Y-63069916D01*
X80774252Y-62751523D01*
X80888419Y-62593338D01*
X80969215Y-62532105D01*
X81073654Y-62490363D01*
X81231232Y-62467093D01*
X81471444Y-62461277D01*
X81823783Y-62471896D01*
X82317746Y-62497933D01*
X82803114Y-62527225D01*
X85760502Y-62657849D01*
X88592689Y-62673471D01*
X91332587Y-62571316D01*
X94013108Y-62348610D01*
X96667165Y-62002577D01*
X99327669Y-61530442D01*
X102027533Y-60929430D01*
X102171373Y-60894169D01*
X102715705Y-60757955D01*
X103236342Y-60622343D01*
X103766405Y-60477865D01*
X104339010Y-60315052D01*
X104987278Y-60124434D01*
X105744326Y-59896542D01*
X106643272Y-59621908D01*
X106937821Y-59531374D01*
X107434110Y-59402750D01*
X107792385Y-59374959D01*
X108043629Y-59453787D01*
G37*
G36*
X108270309Y-63306199D02*
G01*
X108465991Y-63526907D01*
X108584188Y-63828644D01*
X108607342Y-64157323D01*
X108517896Y-64458853D01*
X108448663Y-64557455D01*
X108259837Y-64685997D01*
X107890899Y-64850019D01*
X107351721Y-65046282D01*
X106652179Y-65271546D01*
X105802148Y-65522570D01*
X104811501Y-65796115D01*
X104110305Y-65980974D01*
X101252648Y-66646090D01*
X98298425Y-67188529D01*
X95308684Y-67598538D01*
X92344474Y-67866364D01*
X92284478Y-67870293D01*
X91634244Y-67905468D01*
X90903364Y-67932932D01*
X90117848Y-67952820D01*
X89303705Y-67965263D01*
X88486943Y-67970396D01*
X87693574Y-67968351D01*
X86949605Y-67959261D01*
X86281046Y-67943260D01*
X85713907Y-67920480D01*
X85274196Y-67891053D01*
X84987924Y-67855114D01*
X84905157Y-67832558D01*
X84679205Y-67695823D01*
X84544355Y-67544227D01*
X84541608Y-67537584D01*
X84475707Y-67184874D01*
X84516065Y-66824061D01*
X84651263Y-66540801D01*
X84678491Y-66510821D01*
X84753838Y-66443370D01*
X84843817Y-66394276D01*
X84975961Y-66361811D01*
X85177798Y-66344244D01*
X85476859Y-66339844D01*
X85900675Y-66346882D01*
X86476775Y-66363628D01*
X86835552Y-66375265D01*
X89696036Y-66387457D01*
X92636633Y-66241761D01*
X95630333Y-65941904D01*
X98650129Y-65491613D01*
X101669012Y-64894615D01*
X104659972Y-64154639D01*
X106262325Y-63694393D01*
X106795058Y-63536806D01*
X107272642Y-63401411D01*
X107660136Y-63297656D01*
X107922600Y-63234988D01*
X108014701Y-63220610D01*
X108270309Y-63306199D01*
G37*
G36*
X98395799Y-15566342D02*
G01*
X98714070Y-15783778D01*
X98719815Y-15789503D01*
X98883542Y-16035994D01*
X99059361Y-16444973D01*
X99238583Y-16986153D01*
X99412514Y-17629246D01*
X99572463Y-18343965D01*
X99709737Y-19100022D01*
X99754680Y-19395565D01*
X99834045Y-20143376D01*
X99876360Y-20983762D01*
X99882959Y-21867422D01*
X99855174Y-22745055D01*
X99794338Y-23567359D01*
X99701784Y-24285032D01*
X99610375Y-24732824D01*
X99276258Y-25760409D01*
X98817061Y-26731840D01*
X98254323Y-27612870D01*
X97609582Y-28369255D01*
X96982421Y-28911187D01*
X96397243Y-29337325D01*
X96071581Y-30355494D01*
X95932085Y-30792738D01*
X95809240Y-31179817D01*
X95718440Y-31468114D01*
X95680167Y-31591793D01*
X95656056Y-31703037D01*
X95691952Y-31768102D01*
X95824990Y-31799358D01*
X96092306Y-31809176D01*
X96334972Y-31809923D01*
X96866791Y-31842390D01*
X97234428Y-31948244D01*
X97457844Y-32140166D01*
X97557003Y-32430836D01*
X97566412Y-32592149D01*
X97554885Y-32764120D01*
X97522400Y-33101933D01*
X97472100Y-33579042D01*
X97407128Y-34168900D01*
X97330627Y-34844959D01*
X97245738Y-35580674D01*
X97155607Y-36349496D01*
X97063374Y-37124880D01*
X96972183Y-37880278D01*
X96885177Y-38589144D01*
X96805499Y-39224929D01*
X96736292Y-39761089D01*
X96680698Y-40171075D01*
X96641861Y-40428341D01*
X96632984Y-40476537D01*
X96607504Y-40669078D01*
X96669669Y-40719750D01*
X96804269Y-40689245D01*
X97395458Y-40579337D01*
X98045273Y-40563851D01*
X98651966Y-40643489D01*
X98775709Y-40675626D01*
X99125982Y-40800733D01*
X99622866Y-41011812D01*
X100245071Y-41297861D01*
X100971309Y-41647877D01*
X101780289Y-42050859D01*
X102650721Y-42495804D01*
X103561318Y-42971711D01*
X104490789Y-43467576D01*
X105417844Y-43972397D01*
X106321194Y-44475174D01*
X107179550Y-44964902D01*
X107939694Y-45411486D01*
X109152297Y-46149670D01*
X110202636Y-46819284D01*
X111105441Y-47430927D01*
X111875440Y-47995197D01*
X112527363Y-48522693D01*
X113075942Y-49024013D01*
X113350390Y-49304632D01*
X113873625Y-49915343D01*
X114248725Y-50479839D01*
X114500773Y-51039033D01*
X114586147Y-51320392D01*
X114727393Y-51950286D01*
X114868114Y-52742356D01*
X115004564Y-53664913D01*
X115132998Y-54686267D01*
X115249673Y-55774728D01*
X115350843Y-56898607D01*
X115432764Y-58026212D01*
X115481242Y-58895319D01*
X115549999Y-60338349D01*
X116955724Y-60716067D01*
X118665661Y-61198727D01*
X120292801Y-61708739D01*
X121899297Y-62267605D01*
X123547305Y-62896830D01*
X125099236Y-63533408D01*
X126346051Y-64077120D01*
X127420569Y-64587142D01*
X128338996Y-65075191D01*
X129117537Y-65552984D01*
X129772397Y-66032237D01*
X130319780Y-66524667D01*
X130775892Y-67041992D01*
X131156938Y-67595928D01*
X131440957Y-68118722D01*
X131827757Y-69112995D01*
X132040347Y-70131858D01*
X132082364Y-71152454D01*
X131957445Y-72151924D01*
X131669230Y-73107412D01*
X131221355Y-73996060D01*
X130617458Y-74795010D01*
X130332263Y-75085076D01*
X129761227Y-75575216D01*
X129139380Y-76008041D01*
X128441479Y-76395127D01*
X127642282Y-76748053D01*
X126716546Y-77078398D01*
X125639030Y-77397740D01*
X124830714Y-77608538D01*
X121838472Y-78291635D01*
X118684661Y-78888334D01*
X115382210Y-79396765D01*
X111944046Y-79815057D01*
X108383100Y-80141341D01*
X106340076Y-80283179D01*
X105641776Y-80318532D01*
X104784642Y-80349488D01*
X103803460Y-80375745D01*
X102733019Y-80397001D01*
X101608107Y-80412952D01*
X100463510Y-80423296D01*
X99334018Y-80427731D01*
X98254416Y-80425954D01*
X97259495Y-80417663D01*
X96384040Y-80402555D01*
X95662840Y-80380328D01*
X95579007Y-80376757D01*
X91204085Y-80097439D01*
X86849995Y-79649930D01*
X82540218Y-79037621D01*
X78298237Y-78263903D01*
X74147532Y-77332166D01*
X73669083Y-77213017D01*
X72003051Y-76778729D01*
X70506565Y-76355804D01*
X69156225Y-75936459D01*
X67928632Y-75512908D01*
X66800386Y-75077369D01*
X65748088Y-74622055D01*
X65417353Y-74467960D01*
X64295699Y-73893839D01*
X63355432Y-73318609D01*
X62584248Y-72732292D01*
X61969843Y-72124911D01*
X61499912Y-71486488D01*
X61306163Y-71134051D01*
X61028264Y-70355147D01*
X60916020Y-69512497D01*
X60924093Y-69388155D01*
X62432303Y-69388155D01*
X62541645Y-70016788D01*
X62836972Y-70629953D01*
X63320391Y-71232416D01*
X63994008Y-71828943D01*
X64622947Y-72273773D01*
X65097032Y-72570096D01*
X65572002Y-72837170D01*
X66078454Y-73088309D01*
X66646984Y-73336822D01*
X67308189Y-73596022D01*
X68092665Y-73879218D01*
X69031010Y-74199724D01*
X69112595Y-74227025D01*
X71570812Y-74992207D01*
X74192125Y-75701604D01*
X76952728Y-76351027D01*
X79828814Y-76936283D01*
X82796577Y-77453183D01*
X85832211Y-77897537D01*
X88911909Y-78265154D01*
X92011864Y-78551843D01*
X94706488Y-78732155D01*
X95190365Y-78751403D01*
X95836300Y-78766110D01*
X96618237Y-78776470D01*
X97510125Y-78782674D01*
X98485911Y-78784916D01*
X99519539Y-78783389D01*
X100584959Y-78778284D01*
X101656115Y-78769795D01*
X102706955Y-78758115D01*
X103711426Y-78743436D01*
X104643474Y-78725951D01*
X105477046Y-78705852D01*
X106186089Y-78683333D01*
X106744549Y-78658586D01*
X107018702Y-78641072D01*
X109422954Y-78439838D01*
X111675768Y-78216307D01*
X113818912Y-77964428D01*
X115894160Y-77678154D01*
X117943282Y-77351433D01*
X120008050Y-76978219D01*
X122130234Y-76552460D01*
X123548091Y-76247351D01*
X124715790Y-75977339D01*
X125711516Y-75717298D01*
X126556308Y-75458747D01*
X127271207Y-75193204D01*
X127877251Y-74912186D01*
X128395481Y-74607211D01*
X128846937Y-74269798D01*
X129159790Y-73985012D01*
X129768463Y-73275610D01*
X130193722Y-72518757D01*
X130444118Y-71694302D01*
X130528198Y-70782088D01*
X130528244Y-70759015D01*
X130436223Y-69901441D01*
X130159211Y-69087855D01*
X129695778Y-68315916D01*
X129044497Y-67583284D01*
X128203940Y-66887619D01*
X128136418Y-66839138D01*
X127677167Y-66548020D01*
X127058160Y-66209829D01*
X126304662Y-65835479D01*
X125441938Y-65435882D01*
X124495251Y-65021948D01*
X123489866Y-64604591D01*
X122451047Y-64194722D01*
X121404060Y-63803253D01*
X120374168Y-63441096D01*
X119912595Y-63287182D01*
X119242371Y-63071549D01*
X118555944Y-62857257D01*
X117881542Y-62652482D01*
X117247394Y-62465405D01*
X116681726Y-62304201D01*
X116212767Y-62177050D01*
X115868744Y-62092130D01*
X115677886Y-62057619D01*
X115667331Y-62057251D01*
X115600113Y-62100563D01*
X115548452Y-62248829D01*
X115506917Y-62529547D01*
X115470079Y-62970214D01*
X115461550Y-63099427D01*
X115315472Y-64587634D01*
X115071994Y-65914666D01*
X114722514Y-67091709D01*
X114258435Y-68129951D01*
X113671156Y-69040577D01*
X112952078Y-69834777D01*
X112092601Y-70523736D01*
X111084125Y-71118641D01*
X109918050Y-71630681D01*
X108585777Y-72071041D01*
X108559016Y-72078724D01*
X107659679Y-72310181D01*
X106595825Y-72539114D01*
X105396819Y-72760968D01*
X104092026Y-72971184D01*
X102710813Y-73165205D01*
X101282543Y-73338474D01*
X99836583Y-73486433D01*
X99044151Y-73555391D01*
X98246445Y-73606140D01*
X97305570Y-73642511D01*
X96258658Y-73664875D01*
X95142841Y-73673604D01*
X93995250Y-73669067D01*
X92853015Y-73651636D01*
X91753269Y-73621681D01*
X90733143Y-73579573D01*
X89829769Y-73525683D01*
X89080277Y-73460381D01*
X89035114Y-73455456D01*
X87477480Y-73274681D01*
X86095608Y-73095564D01*
X84871448Y-72914171D01*
X83786949Y-72726566D01*
X82824062Y-72528815D01*
X81964736Y-72316982D01*
X81190921Y-72087132D01*
X80484567Y-71835331D01*
X79827623Y-71557644D01*
X79410227Y-71357216D01*
X78338585Y-70738992D01*
X77444681Y-70048231D01*
X76723416Y-69276937D01*
X76169691Y-68417112D01*
X75778409Y-67460759D01*
X75544469Y-66399881D01*
X75462775Y-65226479D01*
X75462595Y-65165375D01*
X75464053Y-65106377D01*
X77074210Y-65106377D01*
X77135361Y-66071362D01*
X77312919Y-66910355D01*
X77613708Y-67642572D01*
X78044554Y-68287229D01*
X78612281Y-68863544D01*
X78945736Y-69129209D01*
X79694163Y-69612365D01*
X80578435Y-70050298D01*
X81606855Y-70445290D01*
X82787720Y-70799625D01*
X84129330Y-71115586D01*
X85639986Y-71395455D01*
X87327987Y-71641516D01*
X88647328Y-71797889D01*
X90211747Y-71938204D01*
X91892358Y-72035369D01*
X93635983Y-72088916D01*
X95389442Y-72098374D01*
X97099556Y-72063274D01*
X98713147Y-71983148D01*
X99796183Y-71896276D01*
X101421584Y-71721743D01*
X102983160Y-71515969D01*
X104464349Y-71282532D01*
X105848593Y-71025014D01*
X107119332Y-70746993D01*
X108260008Y-70452050D01*
X109254059Y-70143764D01*
X110084927Y-69825716D01*
X110652252Y-69549394D01*
X111450794Y-68997402D01*
X112157486Y-68293977D01*
X112748703Y-67469180D01*
X113200820Y-66553070D01*
X113355386Y-66109908D01*
X113585202Y-65166422D01*
X113754614Y-64048937D01*
X113862888Y-62767937D01*
X113909294Y-61333906D01*
X113893099Y-59757328D01*
X113859737Y-58885547D01*
X113816708Y-58100893D01*
X113760986Y-57281290D01*
X113695184Y-56450770D01*
X113621914Y-55633364D01*
X113543789Y-54853103D01*
X113463422Y-54134018D01*
X113383424Y-53500141D01*
X113306409Y-52975504D01*
X113234989Y-52584137D01*
X113171776Y-52350073D01*
X113143708Y-52299179D01*
X113042374Y-52311367D01*
X112779169Y-52367714D01*
X112379479Y-52462089D01*
X111868688Y-52588358D01*
X111272184Y-52740390D01*
X110708640Y-52887422D01*
X108246419Y-53511065D01*
X105792537Y-54083102D01*
X103363622Y-54601055D01*
X100976300Y-55062450D01*
X98647199Y-55464810D01*
X96392946Y-55805659D01*
X94230167Y-56082520D01*
X92175490Y-56292918D01*
X90245542Y-56434376D01*
X88456949Y-56504418D01*
X86826340Y-56500568D01*
X86514503Y-56490481D01*
X85297085Y-56425598D01*
X84059160Y-56324789D01*
X82835394Y-56192816D01*
X81660455Y-56034439D01*
X80569007Y-55854420D01*
X79595719Y-55657521D01*
X78775255Y-55448504D01*
X78645414Y-55409634D01*
X78580703Y-55392293D01*
X78527656Y-55399952D01*
X78479798Y-55455024D01*
X78430656Y-55579921D01*
X78373758Y-55797056D01*
X78302629Y-56128841D01*
X78210796Y-56597690D01*
X78091787Y-57226013D01*
X78037489Y-57514451D01*
X77843814Y-58601397D01*
X77655747Y-59765652D01*
X77480999Y-60952578D01*
X77327282Y-62107536D01*
X77202308Y-63175888D01*
X77122640Y-63996182D01*
X77074210Y-65106377D01*
X75464053Y-65106377D01*
X75476205Y-64614751D01*
X75513543Y-63959396D01*
X75569369Y-63256426D01*
X75638443Y-62562957D01*
X75715524Y-61936106D01*
X75795372Y-61432988D01*
X75813401Y-61341628D01*
X75841041Y-61163550D01*
X75791411Y-61096752D01*
X75617679Y-61110192D01*
X75497337Y-61132128D01*
X75160114Y-61208469D01*
X74680520Y-61334977D01*
X74099706Y-61499257D01*
X73458824Y-61688914D01*
X72799025Y-61891555D01*
X72161463Y-62094784D01*
X71587287Y-62286209D01*
X71148473Y-62441954D01*
X70411413Y-62736734D01*
X69577025Y-63106304D01*
X68693341Y-63526539D01*
X67808393Y-63973311D01*
X66970214Y-64422497D01*
X66226835Y-64849969D01*
X65719465Y-65168852D01*
X64930777Y-65735774D01*
X64213579Y-66335710D01*
X63594948Y-66942132D01*
X63101962Y-67528508D01*
X62763149Y-68065421D01*
X62506839Y-68739288D01*
X62432303Y-69388155D01*
X60924093Y-69388155D01*
X60972177Y-68647504D01*
X61103566Y-68082046D01*
X61450790Y-67250933D01*
X61981640Y-66421117D01*
X62685909Y-65598817D01*
X63553393Y-64790254D01*
X64573884Y-64001646D01*
X65737180Y-63239213D01*
X67033072Y-62509175D01*
X68451357Y-61817751D01*
X69981829Y-61171161D01*
X71614281Y-60575624D01*
X73338509Y-60037359D01*
X75043028Y-59586948D01*
X76126134Y-59325023D01*
X76229542Y-58873389D01*
X76288530Y-58581005D01*
X76362798Y-58163188D01*
X76440811Y-57686535D01*
X76484054Y-57403816D01*
X76641771Y-56401651D01*
X76793181Y-55568534D01*
X76943236Y-54879946D01*
X77096888Y-54311370D01*
X77130185Y-54204579D01*
X77237798Y-53903695D01*
X77299941Y-53780236D01*
X79349411Y-53780236D01*
X79361704Y-53852363D01*
X79545829Y-53942466D01*
X79880999Y-54046324D01*
X80346429Y-54159718D01*
X80921331Y-54278428D01*
X81584919Y-54398232D01*
X82316407Y-54514911D01*
X83095008Y-54624244D01*
X83899935Y-54722012D01*
X84090839Y-54742872D01*
X84643969Y-54786163D01*
X85355576Y-54817513D01*
X86190636Y-54837297D01*
X87114123Y-54845889D01*
X88091013Y-54843666D01*
X89086282Y-54831000D01*
X90064904Y-54808269D01*
X90991856Y-54775846D01*
X91832112Y-54734107D01*
X92550649Y-54683427D01*
X92912976Y-54648419D01*
X96198146Y-54227819D01*
X99604736Y-53678583D01*
X103137832Y-52999738D01*
X106802518Y-52190310D01*
X110454333Y-51288156D01*
X111036209Y-51133487D01*
X111548587Y-50989911D01*
X111963772Y-50865800D01*
X112254070Y-50769527D01*
X112391788Y-50709462D01*
X112399236Y-50700184D01*
X112323720Y-50557421D01*
X112113893Y-50325747D01*
X111794832Y-50026656D01*
X111391616Y-49681640D01*
X110929325Y-49312195D01*
X110433037Y-48939812D01*
X109949154Y-48600364D01*
X108216010Y-47476354D01*
X106311756Y-46328732D01*
X104256027Y-45168682D01*
X102068460Y-44007389D01*
X100455900Y-43193135D01*
X99712600Y-42831557D01*
X99111186Y-42556986D01*
X98623938Y-42362468D01*
X98223139Y-42241045D01*
X97881070Y-42185763D01*
X97570013Y-42189664D01*
X97262249Y-42245794D01*
X96996024Y-42324875D01*
X96708877Y-42432683D01*
X96504953Y-42532314D01*
X96446717Y-42578774D01*
X96420971Y-42695051D01*
X96376041Y-42978403D01*
X96315434Y-43403346D01*
X96242657Y-43944393D01*
X96161216Y-44576059D01*
X96074619Y-45272858D01*
X96064177Y-45358575D01*
X95972443Y-46112584D01*
X95882449Y-46851081D01*
X95798592Y-47538093D01*
X95725265Y-48137648D01*
X95666862Y-48613773D01*
X95630105Y-48911766D01*
X95501723Y-49651245D01*
X95311372Y-50238827D01*
X95043247Y-50710933D01*
X94681545Y-51103984D01*
X94677192Y-51107823D01*
X94242578Y-51423905D01*
X93760629Y-51632434D01*
X93191677Y-51743942D01*
X92496051Y-51768963D01*
X92222476Y-51759583D01*
X91732414Y-51726987D01*
X91369670Y-51675048D01*
X91067734Y-51589343D01*
X90760092Y-51455453D01*
X90713517Y-51432410D01*
X90356806Y-51228385D01*
X90080802Y-50999254D01*
X89878506Y-50720569D01*
X89742919Y-50367887D01*
X89667040Y-49916761D01*
X89643871Y-49342744D01*
X89645826Y-49280192D01*
X91285437Y-49280192D01*
X91295406Y-49618890D01*
X91340598Y-49847615D01*
X91424842Y-49993856D01*
X91551972Y-50085099D01*
X91628237Y-50117025D01*
X91996000Y-50193706D01*
X92454915Y-50211703D01*
X92911599Y-50171845D01*
X93200459Y-50103115D01*
X93489007Y-49938009D01*
X93734191Y-49692525D01*
X93747753Y-49673051D01*
X93808121Y-49576543D01*
X93861553Y-49467846D01*
X93910930Y-49329058D01*
X93959132Y-49142279D01*
X94009040Y-48889606D01*
X94063533Y-48553138D01*
X94125493Y-48114975D01*
X94197799Y-47557214D01*
X94283332Y-46861954D01*
X94384973Y-46011295D01*
X94505601Y-44987334D01*
X94516121Y-44897709D01*
X94604731Y-44147127D01*
X94712062Y-43245270D01*
X94833163Y-42233308D01*
X94963086Y-41152409D01*
X95096879Y-40043742D01*
X95229594Y-38948474D01*
X95356281Y-37907776D01*
X95372844Y-37772137D01*
X95480246Y-36883821D01*
X95578320Y-36054915D01*
X95664879Y-35305202D01*
X95737740Y-34654465D01*
X95794718Y-34122489D01*
X95833628Y-33729055D01*
X95852285Y-33493949D01*
X95851931Y-33433778D01*
X95744578Y-33406433D01*
X95481288Y-33383784D01*
X95100000Y-33367982D01*
X94638654Y-33361180D01*
X94569678Y-33361068D01*
X93329425Y-33361068D01*
X93224795Y-33966984D01*
X92917445Y-35773609D01*
X92647064Y-37425079D01*
X92409144Y-38955643D01*
X92199176Y-40399549D01*
X92012651Y-41791048D01*
X91845059Y-43164389D01*
X91691892Y-44553819D01*
X91548640Y-45993590D01*
X91410794Y-47517950D01*
X91355834Y-48162927D01*
X91306856Y-48804034D01*
X91285437Y-49280192D01*
X89645826Y-49280192D01*
X89666412Y-48621393D01*
X89711750Y-47933736D01*
X89751287Y-47409261D01*
X89785409Y-46955780D01*
X89811573Y-46607175D01*
X89827233Y-46397326D01*
X89830542Y-46351908D01*
X89822167Y-46234869D01*
X89741327Y-46260876D01*
X89523399Y-46379281D01*
X89192574Y-46574858D01*
X88773047Y-46832382D01*
X88289011Y-47136628D01*
X87764658Y-47472372D01*
X87224183Y-47824388D01*
X86691777Y-48177450D01*
X86191635Y-48516335D01*
X86135668Y-48554821D01*
X85448617Y-49037760D01*
X84671463Y-49600323D01*
X83843999Y-50212441D01*
X83006015Y-50844042D01*
X82197304Y-51465056D01*
X81457656Y-52045414D01*
X80826865Y-52555045D01*
X80671574Y-52683981D01*
X80258003Y-53029403D01*
X79889095Y-53336384D01*
X79593964Y-53580785D01*
X79401725Y-53738464D01*
X79349411Y-53780236D01*
X77299941Y-53780236D01*
X77363993Y-53652986D01*
X77541451Y-53405939D01*
X77802854Y-53116041D01*
X78117963Y-52798721D01*
X78767749Y-52190311D01*
X79560689Y-51502054D01*
X80472539Y-50751937D01*
X81479052Y-49957945D01*
X82555984Y-49138067D01*
X83679087Y-48310287D01*
X84824117Y-47492594D01*
X85966826Y-46702973D01*
X87082971Y-45959411D01*
X88148304Y-45279895D01*
X88744274Y-44915661D01*
X89237482Y-44623431D01*
X89604759Y-44399432D01*
X89867403Y-44208946D01*
X90046715Y-44017255D01*
X90163992Y-43789644D01*
X90240533Y-43491393D01*
X90297636Y-43087785D01*
X90356601Y-42544104D01*
X90390861Y-42231679D01*
X90634320Y-40190768D01*
X90890536Y-38284897D01*
X91168209Y-36455257D01*
X91476033Y-34643037D01*
X91666792Y-33603434D01*
X91799559Y-32943757D01*
X91927832Y-32453969D01*
X92071072Y-32111553D01*
X92248739Y-31893991D01*
X92480295Y-31778765D01*
X92785199Y-31743358D01*
X93182913Y-31765251D01*
X93249693Y-31771872D01*
X93626704Y-31793446D01*
X93859587Y-31769146D01*
X93917956Y-31733945D01*
X93968605Y-31608458D01*
X94063783Y-31335248D01*
X94190844Y-30951868D01*
X94337145Y-30495866D01*
X94370858Y-30388890D01*
X94761921Y-29143892D01*
X94491838Y-28950610D01*
X93798354Y-28340703D01*
X93243746Y-27615233D01*
X92841075Y-26801990D01*
X92603399Y-25928765D01*
X92556107Y-25210568D01*
X94133363Y-25210568D01*
X94157927Y-25669858D01*
X94248195Y-26050826D01*
X94401132Y-26408398D01*
X94614728Y-26762772D01*
X94892487Y-27111529D01*
X95195151Y-27415880D01*
X95483457Y-27637037D01*
X95718146Y-27736209D01*
X95747052Y-27738167D01*
X95897853Y-27672616D01*
X96138165Y-27497611D01*
X96425397Y-27245627D01*
X96543659Y-27130782D01*
X97086147Y-26475978D01*
X97555399Y-25686754D01*
X97922545Y-24817438D01*
X98101181Y-24199618D01*
X98216444Y-23538660D01*
X98291501Y-22750367D01*
X98324061Y-21897553D01*
X98311833Y-21043034D01*
X98252526Y-20249623D01*
X98246972Y-20201541D01*
X98177850Y-19629732D01*
X98118229Y-19240116D01*
X98053171Y-19022540D01*
X97967741Y-18966848D01*
X97847000Y-19062888D01*
X97676010Y-19300506D01*
X97447221Y-19657905D01*
X97191757Y-20040692D01*
X96850808Y-20523336D01*
X96461148Y-21055203D01*
X96059553Y-21585660D01*
X95873726Y-21824427D01*
X95305228Y-22570269D01*
X94864373Y-23205259D01*
X94539052Y-23752951D01*
X94317162Y-24236901D01*
X94186594Y-24680662D01*
X94135244Y-25107789D01*
X94133363Y-25210568D01*
X92556107Y-25210568D01*
X92543779Y-25023348D01*
X92555272Y-24829650D01*
X92655265Y-24184814D01*
X92856815Y-23540755D01*
X93172575Y-22872842D01*
X93615201Y-22156446D01*
X94197348Y-21366937D01*
X94572593Y-20903434D01*
X95353937Y-19922982D01*
X95996436Y-19024241D01*
X96519115Y-18176356D01*
X96941001Y-17348470D01*
X97280255Y-16512141D01*
X97511515Y-16015406D01*
X97782524Y-15688179D01*
X98081285Y-15536484D01*
X98395799Y-15566342D01*
G37*
D13*
%TO.C,R5*%
X92130000Y-43270000D02*
X92130000Y-36730000D01*
X92460000Y-43270000D02*
X92130000Y-43270000D01*
X94540000Y-43270000D02*
X94870000Y-43270000D01*
X94870000Y-43270000D02*
X94870000Y-36730000D01*
X92130000Y-36730000D02*
X92460000Y-36730000D01*
X94870000Y-36730000D02*
X94540000Y-36730000D01*
%TO.C,R4*%
X115870000Y-54040000D02*
X115870000Y-60580000D01*
X115540000Y-54040000D02*
X115870000Y-54040000D01*
X113460000Y-54040000D02*
X113130000Y-54040000D01*
X113130000Y-54040000D02*
X113130000Y-60580000D01*
X115870000Y-60580000D02*
X115540000Y-60580000D01*
X113130000Y-60580000D02*
X113460000Y-60580000D01*
%TO.C,R3*%
X101230000Y-52130000D02*
X107770000Y-52130000D01*
X101230000Y-52460000D02*
X101230000Y-52130000D01*
X101230000Y-54540000D02*
X101230000Y-54870000D01*
X101230000Y-54870000D02*
X107770000Y-54870000D01*
X107770000Y-52130000D02*
X107770000Y-52460000D01*
X107770000Y-54870000D02*
X107770000Y-54540000D01*
%TO.C,R2*%
X97770000Y-56370000D02*
X97770000Y-56040000D01*
X97770000Y-53630000D02*
X97770000Y-53960000D01*
X91230000Y-56370000D02*
X97770000Y-56370000D01*
X91230000Y-56040000D02*
X91230000Y-56370000D01*
X91230000Y-53960000D02*
X91230000Y-53630000D01*
X91230000Y-53630000D02*
X97770000Y-53630000D01*
%TO.C,R1*%
X87770000Y-56870000D02*
X81230000Y-56870000D01*
X87770000Y-56540000D02*
X87770000Y-56870000D01*
X87770000Y-54460000D02*
X87770000Y-54130000D01*
X87770000Y-54130000D02*
X81230000Y-54130000D01*
X81230000Y-56870000D02*
X81230000Y-56540000D01*
X81230000Y-54130000D02*
X81230000Y-54460000D01*
%TO.C,D3*%
X94955000Y-26565000D02*
X98045000Y-26565000D01*
X94955170Y-26565000D02*
G75*
G02*
X96500000Y-21015000I1544830J2560000D01*
G01*
X96500000Y-21015000D02*
G75*
G02*
X98044830Y-26565000I0J-2990000D01*
G01*
X99000000Y-24005000D02*
G75*
G02*
X94000000Y-24005000I-2500000J0D01*
G01*
X94000000Y-24005000D02*
G75*
G02*
X99000000Y-24005000I2500000J0D01*
G01*
%TO.C,D2*%
X100545000Y-39710000D02*
X97455000Y-39710000D01*
X100544830Y-39710000D02*
G75*
G02*
X99000000Y-45260000I-1544830J-2560000D01*
G01*
X99000000Y-45260000D02*
G75*
G02*
X97455170Y-39710000I0J2990000D01*
G01*
X101500000Y-42270000D02*
G75*
G02*
X96500000Y-42270000I-2500000J0D01*
G01*
X96500000Y-42270000D02*
G75*
G02*
X101500000Y-42270000I2500000J0D01*
G01*
%TO.C,D1*%
X109170000Y-46955000D02*
X109170000Y-50045000D01*
X109170000Y-46955170D02*
G75*
G02*
X114720000Y-48500000I2560000J-1544830D01*
G01*
X114720000Y-48500000D02*
G75*
G02*
X109170000Y-50044830I-2990000J0D01*
G01*
X114230000Y-48500000D02*
G75*
G02*
X109230000Y-48500000I-2500000J0D01*
G01*
X109230000Y-48500000D02*
G75*
G02*
X114230000Y-48500000I2500000J0D01*
G01*
%TD*%
M02*
