%TF.GenerationSoftware,KiCad,Pcbnew,9.0.2*%
%TF.CreationDate,2025-06-19T19:47:11-10:00*%
%TF.ProjectId,Happy Birthday PCB,48617070-7920-4426-9972-746864617920,rev?*%
%TF.SameCoordinates,Original*%
%TF.FileFunction,Copper,L1,Top*%
%TF.FilePolarity,Positive*%
%FSLAX46Y46*%
G04 Gerber Fmt 4.6, Leading zero omitted, Abs format (unit mm)*
G04 Created by KiCad (PCBNEW 9.0.2) date 2025-06-19 19:47:11*
%MOMM*%
%LPD*%
G01*
G04 APERTURE LIST*
G04 Aperture macros list*
%AMRoundRect*
0 Rectangle with rounded corners*
0 $1 Rounding radius*
0 $2 $3 $4 $5 $6 $7 $8 $9 X,Y pos of 4 corners*
0 Add a 4 corners polygon primitive as box body*
4,1,4,$2,$3,$4,$5,$6,$7,$8,$9,$2,$3,0*
0 Add four circle primitives for the rounded corners*
1,1,$1+$1,$2,$3*
1,1,$1+$1,$4,$5*
1,1,$1+$1,$6,$7*
1,1,$1+$1,$8,$9*
0 Add four rect primitives between the rounded corners*
20,1,$1+$1,$2,$3,$4,$5,0*
20,1,$1+$1,$4,$5,$6,$7,0*
20,1,$1+$1,$6,$7,$8,$9,0*
20,1,$1+$1,$8,$9,$2,$3,0*%
G04 Aperture macros list end*
%TA.AperFunction,ComponentPad*%
%ADD10C,1.600000*%
%TD*%
%TA.AperFunction,ComponentPad*%
%ADD11R,1.800000X1.100000*%
%TD*%
%TA.AperFunction,ComponentPad*%
%ADD12RoundRect,0.275000X-0.625000X0.275000X-0.625000X-0.275000X0.625000X-0.275000X0.625000X0.275000X0*%
%TD*%
%TA.AperFunction,ComponentPad*%
%ADD13R,1.100000X1.800000*%
%TD*%
%TA.AperFunction,ComponentPad*%
%ADD14RoundRect,0.275000X0.275000X0.625000X-0.275000X0.625000X-0.275000X-0.625000X0.275000X-0.625000X0*%
%TD*%
%TA.AperFunction,ComponentPad*%
%ADD15R,1.800000X1.800000*%
%TD*%
%TA.AperFunction,ComponentPad*%
%ADD16C,1.800000*%
%TD*%
%TA.AperFunction,ComponentPad*%
%ADD17RoundRect,0.250000X0.550000X-0.550000X0.550000X0.550000X-0.550000X0.550000X-0.550000X-0.550000X0*%
%TD*%
%TA.AperFunction,ComponentPad*%
%ADD18RoundRect,0.250000X-0.550000X-0.550000X0.550000X-0.550000X0.550000X0.550000X-0.550000X0.550000X0*%
%TD*%
%TA.AperFunction,ViaPad*%
%ADD19C,5.500000*%
%TD*%
%TA.AperFunction,ViaPad*%
%ADD20C,0.600000*%
%TD*%
%TA.AperFunction,Conductor*%
%ADD21C,0.200000*%
%TD*%
G04 APERTURE END LIST*
D10*
%TO.P,R5,1*%
%TO.N,Net-(BT1-+)*%
X93500000Y-43810000D03*
%TO.P,R5,2*%
%TO.N,Net-(D3-A)*%
X93500000Y-36190000D03*
%TD*%
%TO.P,R4,1*%
%TO.N,Net-(BT1-+)*%
X114500000Y-53500000D03*
%TO.P,R4,2*%
%TO.N,Net-(D2-A)*%
X114500000Y-61120000D03*
%TD*%
%TO.P,R3,1*%
%TO.N,Net-(BT1-+)*%
X100690000Y-53500000D03*
%TO.P,R3,2*%
%TO.N,Net-(Q1-B)*%
X108310000Y-53500000D03*
%TD*%
%TO.P,R2,2*%
%TO.N,Net-(Q2-B)*%
X98310000Y-55000000D03*
%TO.P,R2,1*%
%TO.N,Net-(BT1-+)*%
X90690000Y-55000000D03*
%TD*%
%TO.P,R1,1*%
%TO.N,Net-(BT1-+)*%
X88310000Y-55500000D03*
%TO.P,R1,2*%
%TO.N,Net-(D1-A)*%
X80690000Y-55500000D03*
%TD*%
D11*
%TO.P,Q2,1,C*%
%TO.N,Net-(D1-A)*%
X81170000Y-62230000D03*
D12*
%TO.P,Q2,2,B*%
%TO.N,Net-(Q2-B)*%
X79100000Y-63500000D03*
%TO.P,Q2,3,E*%
%TO.N,Net-(BT1--)*%
X81170000Y-64770000D03*
%TD*%
D13*
%TO.P,Q1,1,C*%
%TO.N,Net-(D2-A)*%
X113270000Y-66900000D03*
D14*
%TO.P,Q1,2,B*%
%TO.N,Net-(Q1-B)*%
X112000000Y-64830000D03*
%TO.P,Q1,3,E*%
%TO.N,Net-(BT1--)*%
X110730000Y-66900000D03*
%TD*%
D15*
%TO.P,D3,1,K*%
%TO.N,Net-(BT1--)*%
X96500000Y-25275000D03*
D16*
%TO.P,D3,2,A*%
%TO.N,Net-(D3-A)*%
X96500000Y-22735000D03*
%TD*%
D15*
%TO.P,D2,1,K*%
%TO.N,Net-(BT1--)*%
X99000000Y-41000000D03*
D16*
%TO.P,D2,2,A*%
%TO.N,Net-(D2-A)*%
X99000000Y-43540000D03*
%TD*%
D15*
%TO.P,D1,1,K*%
%TO.N,Net-(BT1--)*%
X110460000Y-48500000D03*
D16*
%TO.P,D1,2,A*%
%TO.N,Net-(D1-A)*%
X113000000Y-48500000D03*
%TD*%
D17*
%TO.P,C2,1*%
%TO.N,Net-(Q2-B)*%
X104000000Y-50500000D03*
D10*
%TO.P,C2,2*%
%TO.N,Net-(D2-A)*%
X104000000Y-45500000D03*
%TD*%
%TO.P,C1,2*%
%TO.N,Net-(Q1-B)*%
X92097349Y-48500000D03*
D18*
%TO.P,C1,1*%
%TO.N,Net-(D1-A)*%
X87097349Y-48500000D03*
%TD*%
D19*
%TO.N,*%
X66000000Y-69000000D03*
D20*
%TO.N,Net-(BT1-+)*%
X84500000Y-62000000D03*
%TO.N,Net-(Q1-B)*%
X109500000Y-58500000D03*
%TO.N,Net-(D2-A)*%
X107000000Y-45500000D03*
%TO.N,Net-(BT1-+)*%
X113500000Y-51000000D03*
%TD*%
D21*
%TO.N,Net-(BT1-+)*%
X88310000Y-58190000D02*
X84500000Y-62000000D01*
X88310000Y-55500000D02*
X88310000Y-58190000D01*
%TO.N,Net-(D1-A)*%
X77899000Y-64021206D02*
X77899000Y-58291000D01*
X77899000Y-58291000D02*
X80690000Y-55500000D01*
X114121000Y-68101000D02*
X81978794Y-68101000D01*
X115601000Y-66621000D02*
X114121000Y-68101000D01*
X81978794Y-68101000D02*
X77899000Y-64021206D01*
X113000000Y-49438000D02*
X115601000Y-52039000D01*
X115601000Y-52039000D02*
X115601000Y-66621000D01*
X113000000Y-48500000D02*
X113000000Y-49438000D01*
X80690000Y-54907349D02*
X87097349Y-48500000D01*
X80690000Y-55500000D02*
X80690000Y-54907349D01*
X80690000Y-62150000D02*
X80770000Y-62230000D01*
X80690000Y-55500000D02*
X80690000Y-62150000D01*
%TO.N,Net-(Q1-B)*%
X109500000Y-54690000D02*
X109500000Y-58500000D01*
X108310000Y-53500000D02*
X109500000Y-54690000D01*
X108310000Y-52923840D02*
X108310000Y-53500000D01*
X94709000Y-42709000D02*
X101399000Y-49399000D01*
X101399000Y-49399000D02*
X104785160Y-49399000D01*
X93043950Y-42709000D02*
X94709000Y-42709000D01*
X92097349Y-43655601D02*
X93043950Y-42709000D01*
X92097349Y-48500000D02*
X92097349Y-43655601D01*
X104785160Y-49399000D02*
X108310000Y-52923840D01*
%TO.N,Net-(BT1-+)*%
X93500000Y-52190000D02*
X90690000Y-55000000D01*
X93500000Y-43810000D02*
X93500000Y-52190000D01*
X92190000Y-53500000D02*
X90690000Y-55000000D01*
X100690000Y-53500000D02*
X92190000Y-53500000D01*
%TO.N,Net-(Q2-B)*%
X104000000Y-52500000D02*
X104000000Y-50500000D01*
X98310000Y-55000000D02*
X101500000Y-55000000D01*
X101500000Y-55000000D02*
X104000000Y-52500000D01*
X98310000Y-59190000D02*
X98310000Y-55000000D01*
X79500000Y-63500000D02*
X94000000Y-63500000D01*
X94000000Y-63500000D02*
X98310000Y-59190000D01*
%TO.N,Net-(D2-A)*%
X111661000Y-47299000D02*
X108799000Y-47299000D01*
X108799000Y-47299000D02*
X107000000Y-45500000D01*
X111661000Y-58281000D02*
X111661000Y-47299000D01*
X114500000Y-61120000D02*
X111661000Y-58281000D01*
X114500000Y-65270000D02*
X113270000Y-66500000D01*
X114500000Y-61120000D02*
X114500000Y-65270000D01*
%TO.N,Net-(BT1-+)*%
X114500000Y-53500000D02*
X114500000Y-52000000D01*
X114500000Y-52000000D02*
X113500000Y-51000000D01*
%TO.N,Net-(BT1--)*%
X101057050Y-41000000D02*
X99000000Y-41000000D01*
X108557050Y-48500000D02*
X101057050Y-41000000D01*
X110460000Y-48500000D02*
X108557050Y-48500000D01*
X110460000Y-66230000D02*
X110730000Y-66500000D01*
X110460000Y-48500000D02*
X110460000Y-66230000D01*
X82500000Y-66500000D02*
X110730000Y-66500000D01*
X80770000Y-64770000D02*
X82500000Y-66500000D01*
%TO.N,Net-(D3-A)*%
X93500000Y-25735000D02*
X93500000Y-36190000D01*
X96500000Y-22735000D02*
X93500000Y-25735000D01*
%TO.N,Net-(BT1--)*%
X96500000Y-38500000D02*
X99000000Y-41000000D01*
X96500000Y-25275000D02*
X96500000Y-38500000D01*
%TO.N,Net-(BT1-+)*%
X88310000Y-55500000D02*
X90190000Y-55500000D01*
X90190000Y-55500000D02*
X90690000Y-55000000D01*
%TD*%
M02*
