M48
; DRILL file {KiCad 9.0.2} date 2025-06-19T19:47:39-1000
; FORMAT={-:-/ absolute / metric / decimal}
; #@! TF.CreationDate,2025-06-19T19:47:39-10:00
; #@! TF.GenerationSoftware,Kicad,Pcbnew,9.0.2
; #@! TF.FileFunction,Plated,1,2,PTH
FMAT,2
METRIC
; #@! TA.AperFunction,Plated,PTH,ViaDrill
T1C0.300
; #@! TA.AperFunction,Plated,PTH,ComponentDrill
T2C0.750
; #@! TA.AperFunction,Plated,PTH,ComponentDrill
T3C0.800
; #@! TA.AperFunction,Plated,PTH,ComponentDrill
T4C0.900
; #@! TA.AperFunction,Plated,PTH,ViaDrill
T5C5.000
%
G90
G05
T1
X84.5Y-62.0
X107.0Y-45.5
X109.5Y-58.5
X113.5Y-51.0
T2
X79.5Y-63.5
X80.77Y-62.23
X80.77Y-64.77
X110.73Y-66.5
X112.0Y-65.23
X113.27Y-66.5
T3
X80.69Y-55.5
X87.097Y-48.5
X88.31Y-55.5
X90.69Y-55.0
X92.097Y-48.5
X93.5Y-36.19
X93.5Y-43.81
X98.31Y-55.0
X100.69Y-53.5
X104.0Y-45.5
X104.0Y-50.5
X108.31Y-53.5
X114.5Y-53.5
X114.5Y-61.12
T4
X96.5Y-22.735
X96.5Y-25.275
X99.0Y-41.0
X99.0Y-43.54
X110.46Y-48.5
X113.0Y-48.5
T5
X66.0Y-69.0
M30
